<svg class="main-svg" xmlns="http://www.w3.org/2000/svg" xmlns:xlink="http://www.w3.org/1999/xlink" width="800" height="800" style="" viewBox="0 0 800 800"><rect x="0" y="0" width="800" height="800" style="fill: rgb(255, 255, 255); fill-opacity: 1;"/><defs id="defs-43aba5"><g class="clips"/><g class="gradients"/><g class="patterns"/></defs><g class="bglayer"/><g class="layer-below"><g class="imagelayer"/><g class="shapelayer"/></g><g class="cartesianlayer"/><g class="polarlayer"/><g class="smithlayer"/><g class="ternarylayer"/><g class="geolayer"/><g class="funnelarealayer"/><g class="pielayer"/><g class="iciclelayer"/><g class="treemaplayer"/><g class="sunburstlayer"/><g class="glimages"/><g class="sankey" transform="translate(80,100)matrix(1 0 0 1 0 0)" style="box-sizing: content-box; position: absolute; left: 0px; shape-rendering: geometricprecision; pointer-events: none;"><g class="sankey-links" style="fill: none;"><path class="sankey-link" d="M20,-2.2737367544323206e-13C320,-2.2737367544323206e-13 320,-9.663381206337363e-13 620,-9.663381206337363e-13L620,211.35683544124691C320,211.35683544124691 320,211.35683544124765 20,211.35683544124765Z" style="stroke: rgb(68, 68, 68); stroke-opacity: 1; fill: rgb(0, 0, 0); fill-opacity: 0.2; stroke-width: 0; opacity: 1;"/><path class="sankey-link" d="M20,404.6202218377742C320,404.6202218377742 320,286.4219230968657 620,286.4219230968657L620,363.386856135421C320,363.386856135421 320,481.58515487632945 20,481.58515487632945Z" style="stroke: rgb(68, 68, 68); stroke-opacity: 1; fill: rgb(0, 0, 0); fill-opacity: 0.2; stroke-width: 0; opacity: 1;"/><path class="sankey-link" d="M20,283.8506012623916C320,283.8506012623916 320,211.35683544124691 620,211.35683544124691L620,286.42192309686567C320,286.42192309686567 320,358.91568891801035 20,358.91568891801035Z" style="stroke: rgb(68, 68, 68); stroke-opacity: 1; fill: rgb(0, 0, 0); fill-opacity: 0.2; stroke-width: 0; opacity: 1;"/><path class="sankey-link" d="M20,481.58515487632945C320,481.58515487632945 320,451.4416273445924 620,451.4416273445924L620,501.1715895859741C320,501.1715895859741 320,531.3151171177112 20,531.3151171177112Z" style="stroke: rgb(68, 68, 68); stroke-opacity: 1; fill: rgb(0, 0, 0); fill-opacity: 0.2; stroke-width: 0; opacity: 1;"/><path class="sankey-link" d="M20,211.35683544124765C320,211.35683544124765 320,382.67339030909176 620,382.67339030909176L620,428.282524972069C320,428.282524972069 320,256.9659701042249 20,256.9659701042249Z" style="stroke: rgb(68, 68, 68); stroke-opacity: 1; fill: rgb(0, 0, 0); fill-opacity: 0.2; stroke-width: 0; opacity: 1;"/><path class="sankey-link" d="M20,535.3408881996065C320,535.3408881996065 320,588.6197952266695 620,588.6197952266695L620,613.9022542036513C320,613.9022542036513 320,560.6233471765884 20,560.6233471765884Z" style="stroke: rgb(68, 68, 68); stroke-opacity: 1; fill: rgb(0, 0, 0); fill-opacity: 0.2; stroke-width: 0; opacity: 1;"/><path class="sankey-link" d="M20,358.91568891801035C320,358.91568891801035 320,428.282524972069 620,428.282524972069L620,451.4416273445924C320,451.4416273445924 320,382.07479129053377 20,382.07479129053377Z" style="stroke: rgb(68, 68, 68); stroke-opacity: 1; fill: rgb(0, 0, 0); fill-opacity: 0.2; stroke-width: 0; opacity: 1;"/><path class="sankey-link" d="M20,262.4150195392598C320,262.4150195392598 320,582.1842135035376 620,582.1842135035376L620,588.6197952266693C320,588.6197952266693 320,268.8506012623916 20,268.8506012623916Z" style="stroke: rgb(68, 68, 68); stroke-opacity: 1; fill: rgb(0, 0, 0); fill-opacity: 0.2; stroke-width: 0; opacity: 1;"/><path class="sankey-link" d="M20,615.9716598236043C320,615.9716598236043 320,615.9716598236043 620,615.9716598236043L620,619.9999999999998C320,619.9999999999998 320,619.9999999999998 20,619.9999999999998Z" style="stroke: rgb(68, 68, 68); stroke-opacity: 1; fill: rgb(0, 0, 0); fill-opacity: 0.2; stroke-width: 0; opacity: 1;"/><path class="sankey-link" d="M20,382.07479129053377C320,382.07479129053377 320,519.8338337960844 620,519.8338337960844L620,522.652130462861C320,522.652130462861 320,384.8930879573104 20,384.8930879573104Z" style="stroke: rgb(68, 68, 68); stroke-opacity: 1; fill: rgb(0, 0, 0); fill-opacity: 0.2; stroke-width: 0; opacity: 1;"/><path class="sankey-link" d="M20,610.1308234772811C320,610.1308234772811 320,364.92317464657185 620,364.92317464657185L620,367.6733903090918C320,367.6733903090918 320,612.8810391398011 20,612.8810391398011Z" style="stroke: rgb(68, 68, 68); stroke-opacity: 1; fill: rgb(0, 0, 0); fill-opacity: 0.2; stroke-width: 0; opacity: 1;"/><path class="sankey-link" d="M20,387.15389111753234C320,387.15389111753234 320,562.064008164535 620,562.064008164535L620,564.530338884777C320,564.530338884777 320,389.62022183777447 20,389.62022183777447Z" style="stroke: rgb(68, 68, 68); stroke-opacity: 1; fill: rgb(0, 0, 0); fill-opacity: 0.2; stroke-width: 0; opacity: 1;"/><path class="sankey-link" d="M20,260.00649344527335C320,260.00649344527335 320,559.6554820705486 620,559.6554820705486L620,562.064008164535C320,562.064008164535 320,262.4150195392598 20,262.4150195392598Z" style="stroke: rgb(68, 68, 68); stroke-opacity: 1; fill: rgb(0, 0, 0); fill-opacity: 0.2; stroke-width: 0; opacity: 1;"/><path class="sankey-link" d="M20,384.8930879573104C320,384.8930879573104 320,540.5462154173953 620,540.5462154173953L620,542.8070185776172C320,542.8070185776172 320,387.15389111753234 20,387.15389111753234Z" style="stroke: rgb(68, 68, 68); stroke-opacity: 1; fill: rgb(0, 0, 0); fill-opacity: 0.2; stroke-width: 0; opacity: 1;"/><path class="sankey-link" d="M20,593.0986697275816C320,593.0986697275816 320,613.9395060739049 620,613.9395060739049L620,615.9716598236045C320,615.9716598236045 320,595.1308234772812 20,595.1308234772812Z" style="stroke: rgb(68, 68, 68); stroke-opacity: 1; fill: rgb(0, 0, 0); fill-opacity: 0.2; stroke-width: 0; opacity: 1;"/><path class="sankey-link" d="M20,258.11692444033787C320,258.11692444033787 320,538.6566464124597 620,538.6566464124597L620,540.5462154173953C320,540.5462154173953 320,260.0064934452734 20,260.0064934452734Z" style="stroke: rgb(68, 68, 68); stroke-opacity: 1; fill: rgb(0, 0, 0); fill-opacity: 0.2; stroke-width: 0; opacity: 1;"/><path class="sankey-link" d="M20,612.881039139801C320,612.881039139801 320,501.8023022857861 620,501.8023022857861L620,503.6828794599707C320,503.6828794599707 320,614.7616163139855 20,614.7616163139855Z" style="stroke: rgb(68, 68, 68); stroke-opacity: 1; fill: rgb(0, 0, 0); fill-opacity: 0.2; stroke-width: 0; opacity: 1;"/><path class="sankey-link" d="M20,533.4872865176745C320,533.4872865176745 320,564.5303388847772 620,564.5303388847772L620,566.383940566709C320,566.383940566709 320,535.3408881996064 20,535.3408881996064Z" style="stroke: rgb(68, 68, 68); stroke-opacity: 1; fill: rgb(0, 0, 0); fill-opacity: 0.2; stroke-width: 0; opacity: 1;"/><path class="sankey-link" d="M20,590.9059475716164C320,590.9059475716164 320,363.4857662736807 620,363.4857662736807L620,364.92317464657185C320,364.92317464657185 320,592.3433559445074 20,592.3433559445074Z" style="stroke: rgb(68, 68, 68); stroke-opacity: 1; fill: rgb(0, 0, 0); fill-opacity: 0.2; stroke-width: 0; opacity: 1;"/><path class="sankey-link" d="M20,532.1038291292887C320,532.1038291292887 320,542.8070185776172 620,542.8070185776172L620,544.190475966003C320,544.190475966003 320,533.4872865176744 20,533.4872865176744Z" style="stroke: rgb(68, 68, 68); stroke-opacity: 1; fill: rgb(0, 0, 0); fill-opacity: 0.2; stroke-width: 0; opacity: 1;"/><path class="sankey-link" d="M20,256.9659701042249C320,256.9659701042249 320,518.6828794599714 620,518.6828794599714L620,519.8338337960845C320,519.8338337960845 320,258.1169244403378 20,258.1169244403378Z" style="stroke: rgb(68, 68, 68); stroke-opacity: 1; fill: rgb(0, 0, 0); fill-opacity: 0.2; stroke-width: 0; opacity: 1;"/><path class="sankey-link" d="M20,531.3151171177112C320,531.3151171177112 320,522.652130462861 620,522.652130462861L620,523.4408424744385C320,523.4408424744385 320,532.1038291292887 20,532.1038291292887Z" style="stroke: rgb(0, 0, 0); stroke-opacity: 0.2; fill: rgb(0, 0, 0); fill-opacity: 0.2; stroke-width: 1; opacity: 1;"/><path class="sankey-link" d="M20,615.2394678910325C320,615.2394678910325 320,566.4520215709658 620,566.4520215709658L620,567.1842135035376C320,567.1842135035376 320,615.9716598236043 20,615.9716598236043Z" style="stroke: rgb(0, 0, 0); stroke-opacity: 0.2; fill: rgb(0, 0, 0); fill-opacity: 0.2; stroke-width: 1; opacity: 1;"/><path class="sankey-link" d="M20,592.3433559445075C320,592.3433559445075 320,501.2371014957306 620,501.2371014957306L620,501.802302285786C320,501.802302285786 320,592.908556734563 20,592.908556734563Z" style="stroke: rgb(0, 0, 0); stroke-opacity: 0.2; fill: rgb(0, 0, 0); fill-opacity: 0.2; stroke-width: 1; opacity: 1;"/><path class="sankey-link" d="M20,614.8708028302464C320,614.8708028302464 320,544.2868170097626 620,544.2868170097626L620,544.6554820705488C320,544.6554820705488 320,615.2394678910326 20,615.2394678910326Z" style="stroke: rgb(0, 0, 0); stroke-opacity: 0.2; fill: rgb(0, 0, 0); fill-opacity: 0.2; stroke-width: 1; opacity: 1;"/><path class="sankey-link" d="M20,614.7616163139857C320,614.7616163139857 320,523.5474598961989 620,523.5474598961989L620,523.6566464124596C320,523.6566464124596 320,614.8708028302464 20,614.8708028302464Z" style="stroke: rgb(0, 0, 0); stroke-opacity: 0.2; fill: rgb(0, 0, 0); fill-opacity: 0.2; stroke-width: 1; opacity: 1;"/><path class="sankey-link" d="M20,592.9085567345629C320,592.9085567345629 320,523.4434115689387 620,523.4434115689387L620,523.5474598961989C320,523.5474598961989 320,593.0126050618231 20,593.0126050618231Z" style="stroke: rgb(0, 0, 0); stroke-opacity: 0.2; fill: rgb(0, 0, 0); fill-opacity: 0.2; stroke-width: 1; opacity: 1;"/><path class="sankey-link" d="M20,575.6233471765886C320,575.6233471765886 320,363.386856135421 620,363.386856135421L620,363.4857662736807C320,363.4857662736807 320,575.7222573148483 20,575.7222573148483Z" style="stroke: rgb(0, 0, 0); stroke-opacity: 0.2; fill: rgb(0, 0, 0); fill-opacity: 0.2; stroke-width: 1; opacity: 1;"/><path class="sankey-link" d="M20,575.7222573148483C320,575.7222573148483 320,501.1715895859742 620,501.1715895859742L620,501.2371014957306C320,501.2371014957306 320,575.7877692246047 20,575.7877692246047Z" style="stroke: rgb(0, 0, 0); stroke-opacity: 0.2; fill: rgb(0, 0, 0); fill-opacity: 0.2; stroke-width: 1; opacity: 1;"/><path class="sankey-link" d="M20,575.790338319105C320,575.790338319105 320,544.1904759660031 620,544.1904759660031L620,544.2444269505083C320,544.2444269505083 320,575.8442893036103 20,575.8442893036103Z" style="stroke: rgb(0, 0, 0); stroke-opacity: 0.2; fill: rgb(0, 0, 0); fill-opacity: 0.2; stroke-width: 1; opacity: 1;"/><path class="sankey-link" d="M20,593.0549951210774C320,593.0549951210774 320,566.4083469644615 620,566.4083469644615L620,566.4520215709658C320,566.4520215709658 320,593.0986697275816 20,593.0986697275816Z" style="stroke: rgb(0, 0, 0); stroke-opacity: 0.2; fill: rgb(0, 0, 0); fill-opacity: 0.2; stroke-width: 1; opacity: 1;"/><path class="sankey-link" d="M20,593.0126050618231C320,593.0126050618231 320,544.2444269505083 620,544.2444269505083L620,544.2868170097624C320,544.2868170097624 320,593.0549951210772 20,593.0549951210772Z" style="stroke: rgb(0, 0, 0); stroke-opacity: 0.2; fill: rgb(0, 0, 0); fill-opacity: 0.2; stroke-width: 1; opacity: 1;"/><path class="sankey-link" d="M20,575.8686957013626C320,575.8686957013626 320,613.9022542036513 620,613.9022542036513L620,613.9395060739049C320,613.9395060739049 320,575.9059475716163 20,575.9059475716163Z" style="stroke: rgb(0, 0, 0); stroke-opacity: 0.2; fill: rgb(0, 0, 0); fill-opacity: 0.2; stroke-width: 1; opacity: 1;"/><path class="sankey-link" d="M20,575.8442893036103C320,575.8442893036103 320,566.3839405667092 620,566.3839405667092L620,566.4083469644617C320,566.4083469644617 320,575.8686957013628 20,575.8686957013628Z" style="stroke: rgb(0, 0, 0); stroke-opacity: 0.2; fill: rgb(0, 0, 0); fill-opacity: 0.2; stroke-width: 1; opacity: 1;"/><path class="sankey-link" d="M20,575.7877692246047C320,575.7877692246047 320,523.4408424744385 620,523.4408424744385L620,523.4434115689388C320,523.4434115689388 320,575.7903383191051 20,575.7903383191051Z" style="stroke: rgb(0, 0, 0); stroke-opacity: 0.2; fill: rgb(0, 0, 0); fill-opacity: 0.2; stroke-width: 1; opacity: 1;"/></g><g class="sankey-node-set" style="cursor: move;"><g class="sankey-node" transform="translate(0.000,-0.000)" style="opacity: 1;"><rect class="node-rect" width="20" height="268.8506012623918" style="stroke-width: 0.5; stroke: rgb(0, 0, 0); stroke-opacity: 1; fill: rgb(166, 206, 227); fill-opacity: 1;"/><text class="node-label" data-notex="1" x="0" y="0" text-anchor="start" transform="translate(23.25,137.9253006311959)" style="cursor: default; font-family: 'Open Sans', verdana, arial, sans-serif; font-size: 10px; fill: rgb(42, 63, 95); fill-opacity: 1; text-shadow: rgb(255, 255, 255) 1px 1px 1px, rgb(255, 255, 255) -1px -1px 1px, rgb(255, 255, 255) 1px -1px 1px, rgb(255, 255, 255) -1px 1px 1px; white-space: pre;">Canonical+Unmodified/Expected (209296)</text></g><g class="sankey-node" transform="translate(0.000,404.620)" style="opacity: 1;"><rect class="node-rect" width="20" height="156.0031253388144" style="stroke-width: 0.5; stroke: rgb(0, 0, 0); stroke-opacity: 1; fill: rgb(166, 206, 227); fill-opacity: 1;"/><text class="node-label" data-notex="1" x="0" y="0" text-anchor="start" transform="translate(23.25,81.5015626694072)" style="cursor: default; font-family: 'Open Sans', verdana, arial, sans-serif; font-size: 10px; fill: rgb(42, 63, 95); fill-opacity: 1; text-shadow: rgb(255, 255, 255) 1px 1px 1px, rgb(255, 255, 255) -1px -1px 1px, rgb(255, 255, 255) 1px -1px 1px, rgb(255, 255, 255) -1px 1px 1px; white-space: pre;">Canonical+Unexpected (121446)</text></g><g class="sankey-node" transform="translate(0.000,283.851)" style="opacity: 1;"><rect class="node-rect" width="20" height="105.76962057538259" style="stroke-width: 0.5; stroke: rgb(0, 0, 0); stroke-opacity: 1; fill: rgb(255, 255, 153); fill-opacity: 1;"/><text class="node-label" data-notex="1" x="0" y="0" text-anchor="start" transform="translate(23.25,56.384810287691295)" style="cursor: default; font-family: 'Open Sans', verdana, arial, sans-serif; font-size: 10px; fill: rgb(42, 63, 95); fill-opacity: 1; text-shadow: rgb(255, 255, 255) 1px 1px 1px, rgb(255, 255, 255) -1px -1px 1px, rgb(255, 255, 255) 1px -1px 1px, rgb(255, 255, 255) -1px 1px 1px; white-space: pre;">Unidentified (82340)</text></g><g class="sankey-node" transform="translate(0.000,590.906)" style="opacity: 1;"><rect class="node-rect" width="20" height="4.224875905664703" style="stroke-width: 0.5; stroke: rgb(0, 0, 0); stroke-opacity: 1; fill: rgb(202, 178, 214); fill-opacity: 1;"/><text class="node-label" data-notex="1" x="0" y="0" text-anchor="start" transform="translate(23.25,5.612437952832352)" style="cursor: default; font-family: 'Open Sans', verdana, arial, sans-serif; font-size: 10px; fill: rgb(42, 63, 95); fill-opacity: 1; text-shadow: rgb(255, 255, 255) 1px 1px 1px, rgb(255, 255, 255) -1px -1px 1px, rgb(255, 255, 255) 1px -1px 1px, rgb(255, 255, 255) -1px 1px 1px; white-space: pre;">Decoy (3289)</text></g><g class="sankey-node" transform="translate(0.000,610.131)" style="opacity: 1;"><rect class="node-rect" width="20" height="9.86917652271893" style="stroke-width: 0.5; stroke: rgb(0, 0, 0); stroke-opacity: 1; fill: rgb(31, 120, 180); fill-opacity: 1;"/><text class="node-label" data-notex="1" x="0" y="0" text-anchor="start" transform="translate(23.25,8.434588261359465)" style="cursor: default; font-family: 'Open Sans', verdana, arial, sans-serif; font-size: 10px; fill: rgb(42, 63, 95); fill-opacity: 1; text-shadow: rgb(255, 255, 255) 1px 1px 1px, rgb(255, 255, 255) -1px -1px 1px, rgb(255, 255, 255) 1px -1px 1px, rgb(255, 255, 255) -1px 1px 1px; white-space: pre;">NonCanonical+Unexpected (7683)</text></g><g class="sankey-node" transform="translate(0.000,575.623)" style="opacity: 1;"><rect class="node-rect" width="20" height="0.5" style="stroke-width: 0.5; stroke: rgb(0, 0, 0); stroke-opacity: 1; fill: rgb(31, 120, 180); fill-opacity: 1;"/><text class="node-label" data-notex="1" x="0" y="0" text-anchor="start" transform="translate(23.25,3.75)" style="cursor: default; font-family: 'Open Sans', verdana, arial, sans-serif; font-size: 10px; fill: rgb(42, 63, 95); fill-opacity: 1; text-shadow: rgb(255, 255, 255) 1px 1px 1px, rgb(255, 255, 255) -1px -1px 1px, rgb(255, 255, 255) 1px -1px 1px, rgb(255, 255, 255) -1px 1px 1px; white-space: pre;">NonCanonical+Unmodified/Expected (220)</text></g><g class="sankey-node" transform="translate(620.000,-0.000)" style="opacity: 1;"><rect class="node-rect" width="20" height="367.6733903090927" style="stroke-width: 0.5; stroke: rgb(0, 0, 0); stroke-opacity: 1; fill: rgb(166, 206, 227); fill-opacity: 1;"/><text class="node-label" data-notex="1" x="0" y="0" text-anchor="end" transform="translate(-3.25,187.33669515454636)" style="cursor: default; font-family: 'Open Sans', verdana, arial, sans-serif; font-size: 10px; fill: rgb(42, 63, 95); fill-opacity: 1; text-shadow: rgb(255, 255, 255) 1px 1px 1px, rgb(255, 255, 255) -1px -1px 1px, rgb(255, 255, 255) 1px -1px 1px, rgb(255, 255, 255) -1px 1px 1px; white-space: pre;">Canonical+Unmodified/Expected (286228)</text></g><g class="sankey-node" transform="translate(620.000,382.673)" style="opacity: 1;"><rect class="node-rect" width="20" height="121.00948915087969" style="stroke-width: 0.5; stroke: rgb(0, 0, 0); stroke-opacity: 1; fill: rgb(166, 206, 227); fill-opacity: 1;"/><text class="node-label" data-notex="1" x="0" y="0" text-anchor="end" transform="translate(-3.25,64.00474457543984)" style="cursor: default; font-family: 'Open Sans', verdana, arial, sans-serif; font-size: 10px; fill: rgb(42, 63, 95); fill-opacity: 1; text-shadow: rgb(255, 255, 255) 1px 1px 1px, rgb(255, 255, 255) -1px -1px 1px, rgb(255, 255, 255) 1px -1px 1px, rgb(255, 255, 255) -1px 1px 1px; white-space: pre;">Canonical+Unexpected (94204)</text></g><g class="sankey-node" transform="translate(620.000,582.184)" style="opacity: 1;"><rect class="node-rect" width="20" height="37.81578649646235" style="stroke-width: 0.5; stroke: rgb(0, 0, 0); stroke-opacity: 1; fill: rgb(255, 255, 153); fill-opacity: 1;"/><text class="node-label" data-notex="1" x="0" y="0" text-anchor="end" transform="translate(-3.25,22.407893248231176)" style="cursor: default; font-family: 'Open Sans', verdana, arial, sans-serif; font-size: 10px; fill: rgb(42, 63, 95); fill-opacity: 1; text-shadow: rgb(255, 255, 255) 1px 1px 1px, rgb(255, 255, 255) -1px -1px 1px, rgb(255, 255, 255) 1px -1px 1px, rgb(255, 255, 255) -1px 1px 1px; white-space: pre;">Unidentified (29439)</text></g><g class="sankey-node" transform="translate(620.000,518.683)" style="opacity: 1;"><rect class="node-rect" width="20" height="4.97376695248829" style="stroke-width: 0.5; stroke: rgb(0, 0, 0); stroke-opacity: 1; fill: rgb(202, 178, 214); fill-opacity: 1;"/><text class="node-label" data-notex="1" x="0" y="0" text-anchor="end" transform="translate(-3.25,5.986883476244145)" style="cursor: default; font-family: 'Open Sans', verdana, arial, sans-serif; font-size: 10px; fill: rgb(42, 63, 95); fill-opacity: 1; text-shadow: rgb(255, 255, 255) 1px 1px 1px, rgb(255, 255, 255) -1px -1px 1px, rgb(255, 255, 255) 1px -1px 1px, rgb(255, 255, 255) -1px 1px 1px; white-space: pre;">Decoy (3872)</text></g><g class="sankey-node" transform="translate(620.000,559.655)" style="opacity: 1;"><rect class="node-rect" width="20" height="7.528731432989048" style="stroke-width: 0.5; stroke: rgb(0, 0, 0); stroke-opacity: 1; fill: rgb(31, 120, 180); fill-opacity: 1;"/><text class="node-label" data-notex="1" x="0" y="0" text-anchor="end" transform="translate(-3.25,7.264365716494524)" style="cursor: default; font-family: 'Open Sans', verdana, arial, sans-serif; font-size: 10px; fill: rgb(42, 63, 95); fill-opacity: 1; text-shadow: rgb(255, 255, 255) 1px 1px 1px, rgb(255, 255, 255) -1px -1px 1px, rgb(255, 255, 255) 1px -1px 1px, rgb(255, 255, 255) -1px 1px 1px; white-space: pre;">NonCanonical+Unexpected (5861)</text></g><g class="sankey-node" transform="translate(620.000,538.657)" style="opacity: 1;"><rect class="node-rect" width="20" height="5.998835658088865" style="stroke-width: 0.5; stroke: rgb(0, 0, 0); stroke-opacity: 1; fill: rgb(31, 120, 180); fill-opacity: 1;"/><text class="node-label" data-notex="1" x="0" y="0" text-anchor="end" transform="translate(-3.25,6.499417829044432)" style="cursor: default; font-family: 'Open Sans', verdana, arial, sans-serif; font-size: 10px; fill: rgb(42, 63, 95); fill-opacity: 1; text-shadow: rgb(255, 255, 255) 1px 1px 1px, rgb(255, 255, 255) -1px -1px 1px, rgb(255, 255, 255) 1px -1px 1px, rgb(255, 255, 255) -1px 1px 1px; white-space: pre;">NonCanonical+Unmodified/Expected (4670)</text></g></g></g><defs id="topdefs-43aba5"><g class="clips"/></defs><g class="layer-above"><g class="imagelayer"/><g class="shapelayer"/></g><g class="infolayer"><g class="g-gtitle"><text class="gtitle" x="40" y="50" text-anchor="start" dy="0em" style="opacity: 1; font-family: 'Open Sans', verdana, arial, sans-serif; font-size: 14px; fill: rgb(42, 63, 95); fill-opacity: 1; white-space: pre;">FragPipe search (left) vs ionbot_open search (right)</text></g><g class="first-render"/></g></svg>