<svg class="main-svg" xmlns="http://www.w3.org/2000/svg" xmlns:xlink="http://www.w3.org/1999/xlink" width="800" height="800" style="" viewBox="0 0 800 800"><rect x="0" y="0" width="800" height="800" style="fill: rgb(255, 255, 255); fill-opacity: 1;"/><defs id="defs-c48133"><g class="clips"/><g class="gradients"/><g class="patterns"/></defs><g class="bglayer"/><g class="layer-below"><g class="imagelayer"/><g class="shapelayer"/></g><g class="cartesianlayer"/><g class="polarlayer"/><g class="smithlayer"/><g class="ternarylayer"/><g class="geolayer"/><g class="funnelarealayer"/><g class="pielayer"/><g class="iciclelayer"/><g class="treemaplayer"/><g class="sunburstlayer"/><g class="glimages"/><g class="sankey" transform="translate(80,100)matrix(1 0 0 1 0 0)" style="box-sizing: content-box; position: absolute; left: 0px; shape-rendering: geometricprecision; pointer-events: none;"><g class="sankey-links" style="fill: none;"><path class="sankey-link" d="M20,4.973799150320701e-13C320,4.973799150320701e-13 320,1.8474111129762605e-13 620,1.8474111129762605e-13L620,218.46525460779145C320,218.46525460779145 320,218.46525460779173 20,218.46525460779173Z" style="stroke: rgb(68, 68, 68); stroke-opacity: 1; fill: rgb(0, 0, 0); fill-opacity: 0.2; stroke-width: 0; opacity: 1;"/><path class="sankey-link" d="M20,406.65432936791035C320,406.65432936791035 320,288.713684162084 620,288.713684162084L620,363.9244115143011C320,363.9244115143011 320,481.8650567201274 20,481.8650567201274Z" style="stroke: rgb(68, 68, 68); stroke-opacity: 1; fill: rgb(0, 0, 0); fill-opacity: 0.2; stroke-width: 0; opacity: 1;"/><path class="sankey-link" d="M20,292.615292574611C320,292.615292574611 320,218.46525460779145 620,218.46525460779145L620,288.713684162084C320,288.713684162084 320,362.86372212890353 20,362.86372212890353Z" style="stroke: rgb(68, 68, 68); stroke-opacity: 1; fill: rgb(0, 0, 0); fill-opacity: 0.2; stroke-width: 0; opacity: 1;"/><path class="sankey-link" d="M20,481.86505672012737C320,481.86505672012737 320,452.5788559331785 620,452.5788559331785L620,502.0036931360594C320,502.0036931360594 320,531.2898939230082 20,531.2898939230082Z" style="stroke: rgb(68, 68, 68); stroke-opacity: 1; fill: rgb(0, 0, 0); fill-opacity: 0.2; stroke-width: 0; opacity: 1;"/><path class="sankey-link" d="M20,218.46525460779173C320,218.46525460779173 320,383.79892542396294 620,383.79892542396294L620,430.8912193101545C320,430.8912193101545 320,265.5575484939833 20,265.5575484939833Z" style="stroke: rgb(68, 68, 68); stroke-opacity: 1; fill: rgb(0, 0, 0); fill-opacity: 0.2; stroke-width: 0; opacity: 1;"/><path class="sankey-link" d="M20,535.290331116685C320,535.290331116685 320,589.4436825513702 620,589.4436825513702L620,613.9767712096458C320,613.9767712096458 320,559.8234197749606 20,559.8234197749606Z" style="stroke: rgb(68, 68, 68); stroke-opacity: 1; fill: rgb(0, 0, 0); fill-opacity: 0.2; stroke-width: 0; opacity: 1;"/><path class="sankey-link" d="M20,362.86372212890353C320,362.86372212890353 320,430.8912193101545 620,430.8912193101545L620,452.5788559331785C320,452.5788559331785 320,384.5513587519275 20,384.5513587519275Z" style="stroke: rgb(68, 68, 68); stroke-opacity: 1; fill: rgb(0, 0, 0); fill-opacity: 0.2; stroke-width: 0; opacity: 1;"/><path class="sankey-link" d="M20,271.35504728594816C320,271.35504728594816 320,583.1834372627073 620,583.1834372627073L620,589.4436825513702C320,589.4436825513702 320,277.61529257461103 20,277.61529257461103Z" style="stroke: rgb(68, 68, 68); stroke-opacity: 1; fill: rgb(0, 0, 0); fill-opacity: 0.2; stroke-width: 0; opacity: 1;"/><path class="sankey-link" d="M20,615.9581789732852C320,615.9581789732852 320,615.958178973285 620,615.958178973285L620,619.9999999999999C320,619.9999999999999 320,620 20,620Z" style="stroke: rgb(68, 68, 68); stroke-opacity: 1; fill: rgb(0, 0, 0); fill-opacity: 0.2; stroke-width: 0; opacity: 1;"/><path class="sankey-link" d="M20,609.4546469085806C320,609.4546469085806 320,365.6148783911275 620,365.6148783911275L620,368.79892542396306C320,368.79892542396306 320,612.638693941416 20,612.638693941416Z" style="stroke: rgb(68, 68, 68); stroke-opacity: 1; fill: rgb(0, 0, 0); fill-opacity: 0.2; stroke-width: 0; opacity: 1;"/><path class="sankey-link" d="M20,386.68074507006645C320,386.68074507006645 320,541.932050898548 620,541.932050898548L620,544.6006811017281C320,544.6006811017281 320,389.34937527324644 20,389.34937527324644Z" style="stroke: rgb(68, 68, 68); stroke-opacity: 1; fill: rgb(0, 0, 0); fill-opacity: 0.2; stroke-width: 0; opacity: 1;"/><path class="sankey-link" d="M20,268.7854874709501C320,268.7854874709501 320,560.6528337053314 620,560.6528337053314L620,563.2223935203294C320,563.2223935203294 320,271.3550472859481 20,271.3550472859481Z" style="stroke: rgb(68, 68, 68); stroke-opacity: 1; fill: rgb(0, 0, 0); fill-opacity: 0.2; stroke-width: 0; opacity: 1;"/><path class="sankey-link" d="M20,389.34937527324644C320,389.34937527324644 320,563.2223935203294 620,563.2223935203294L620,565.5273476149935C320,565.5273476149935 320,391.65432936791035 20,391.65432936791035Z" style="stroke: rgb(68, 68, 68); stroke-opacity: 1; fill: rgb(0, 0, 0); fill-opacity: 0.2; stroke-width: 0; opacity: 1;"/><path class="sankey-link" d="M20,384.5513587519275C320,384.5513587519275 320,521.7239582134886 620,521.7239582134886L620,523.8533445316276C320,523.8533445316276 320,386.68074507006645 20,386.68074507006645Z" style="stroke: rgb(68, 68, 68); stroke-opacity: 1; fill: rgb(0, 0, 0); fill-opacity: 0.2; stroke-width: 0; opacity: 1;"/><path class="sankey-link" d="M20,612.6386939414161C320,612.6386939414161 320,502.6771209645874 620,502.6771209645874L620,504.70869095009095C320,504.70869095009095 320,614.6702639269198 20,614.6702639269198Z" style="stroke: rgb(68, 68, 68); stroke-opacity: 1; fill: rgb(0, 0, 0); fill-opacity: 0.2; stroke-width: 0; opacity: 1;"/><path class="sankey-link" d="M20,265.5575484939833C320,265.5575484939833 320,519.7086909500908 620,519.7086909500908L620,521.7239582134885C320,521.7239582134885 320,267.572815757381 20,267.572815757381Z" style="stroke: rgb(68, 68, 68); stroke-opacity: 1; fill: rgb(0, 0, 0); fill-opacity: 0.2; stroke-width: 0; opacity: 1;"/><path class="sankey-link" d="M20,592.5058445891531C320,592.5058445891531 320,614.0093766538575 620,614.0093766538575L620,615.9581789732852C320,615.9581789732852 320,594.4546469085807 20,594.4546469085807Z" style="stroke: rgb(68, 68, 68); stroke-opacity: 1; fill: rgb(0, 0, 0); fill-opacity: 0.2; stroke-width: 0; opacity: 1;"/><path class="sankey-link" d="M20,533.4681884074648C320,533.4681884074648 320,565.5273476149933 620,565.5273476149933L620,567.3494903242134C320,567.3494903242134 320,535.2903311166849 20,535.2903311166849Z" style="stroke: rgb(68, 68, 68); stroke-opacity: 1; fill: rgb(0, 0, 0); fill-opacity: 0.2; stroke-width: 0; opacity: 1;"/><path class="sankey-link" d="M20,590.1444579948918C320,590.1444579948918 320,364.04856301341516 620,364.04856301341516L620,365.61487839112743C320,365.61487839112743 320,591.7107733726041 20,591.7107733726041Z" style="stroke: rgb(68, 68, 68); stroke-opacity: 1; fill: rgb(0, 0, 0); fill-opacity: 0.2; stroke-width: 0; opacity: 1;"/><path class="sankey-link" d="M20,531.2898939230082C320,531.2898939230082 320,523.8533445316275 620,523.8533445316275L620,525.2152488552429C320,525.2152488552429 320,532.6517982466236 20,532.6517982466236Z" style="stroke: rgb(68, 68, 68); stroke-opacity: 1; fill: rgb(0, 0, 0); fill-opacity: 0.2; stroke-width: 0; opacity: 1;"/><path class="sankey-link" d="M20,267.57281575738097C320,267.57281575738097 320,540.719379184979 620,540.719379184979L620,541.932050898548C320,541.932050898548 320,268.78548747095005 20,268.78548747095005Z" style="stroke: rgb(68, 68, 68); stroke-opacity: 1; fill: rgb(0, 0, 0); fill-opacity: 0.2; stroke-width: 0; opacity: 1;"/><path class="sankey-link" d="M20,532.6517982466236C320,532.6517982466236 320,544.600681101728 620,544.600681101728L620,545.4170712625694C320,545.4170712625694 320,533.4681884074649 20,533.4681884074649Z" style="stroke: rgb(0, 0, 0); stroke-opacity: 0.2; fill: rgb(0, 0, 0); fill-opacity: 0.2; stroke-width: 1; opacity: 1;"/><path class="sankey-link" d="M20,615.1982213120413C320,615.1982213120413 320,567.4234796014633 620,567.4234796014633L620,568.1834372627073C320,568.1834372627073 320,615.9581789732853 20,615.9581789732853Z" style="stroke: rgb(0, 0, 0); stroke-opacity: 0.2; fill: rgb(0, 0, 0); fill-opacity: 0.2; stroke-width: 1; opacity: 1;"/><path class="sankey-link" d="M20,591.7107733726041C320,591.7107733726041 320,502.0839526910422 620,502.0839526910422L620,502.6771209645874C320,502.6771209645874 320,592.3039416461493 20,592.3039416461493Z" style="stroke: rgb(0, 0, 0); stroke-opacity: 0.2; fill: rgb(0, 0, 0); fill-opacity: 0.2; stroke-width: 1; opacity: 1;"/><path class="sankey-link" d="M20,614.6702639269197C320,614.6702639269197 320,525.3155732989715 620,525.3155732989715L620,525.7193791849791C320,525.7193791849791 320,615.0740698129273 20,615.0740698129273Z" style="stroke: rgb(0, 0, 0); stroke-opacity: 0.2; fill: rgb(0, 0, 0); fill-opacity: 0.2; stroke-width: 1; opacity: 1;"/><path class="sankey-link" d="M20,574.8234197749604C320,574.8234197749604 320,363.924411514301 620,363.924411514301L620,364.0485630134151C320,364.0485630134151 320,574.9475712740744 20,574.9475712740744Z" style="stroke: rgb(0, 0, 0); stroke-opacity: 0.2; fill: rgb(0, 0, 0); fill-opacity: 0.2; stroke-width: 1; opacity: 1;"/><path class="sankey-link" d="M20,615.0740698129272C320,615.0740698129272 320,545.5286822062174 620,545.5286822062174L620,545.6528337053314C320,545.6528337053314 320,615.1982213120413 20,615.1982213120413Z" style="stroke: rgb(0, 0, 0); stroke-opacity: 0.2; fill: rgb(0, 0, 0); fill-opacity: 0.2; stroke-width: 1; opacity: 1;"/><path class="sankey-link" d="M20,592.3503417013737C320,592.3503417013737 320,545.4195793736625 620,545.4195793736625L620,545.5286822062172C320,545.5286822062172 320,592.4594445339285 20,592.4594445339285Z" style="stroke: rgb(0, 0, 0); stroke-opacity: 0.2; fill: rgb(0, 0, 0); fill-opacity: 0.2; stroke-width: 1; opacity: 1;"/><path class="sankey-link" d="M20,574.9475712740744C320,574.9475712740744 320,502.0036931360594 620,502.0036931360594L620,502.0839526910422C320,502.0839526910422 320,575.0278308290573 20,575.0278308290573Z" style="stroke: rgb(0, 0, 0); stroke-opacity: 0.2; fill: rgb(0, 0, 0); fill-opacity: 0.2; stroke-width: 1; opacity: 1;"/><path class="sankey-link" d="M20,575.0278308290573C320,575.0278308290573 320,525.2152488552429 620,525.2152488552429L620,525.269173243747C320,525.269173243747 320,575.0817552175614 20,575.0817552175614Z" style="stroke: rgb(0, 0, 0); stroke-opacity: 0.2; fill: rgb(0, 0, 0); fill-opacity: 0.2; stroke-width: 1; opacity: 1;"/><path class="sankey-link" d="M20,592.3039416461493C320,592.3039416461493 320,525.269173243747 620,525.269173243747L620,525.3155732989715C320,525.3155732989715 320,592.3503417013737 20,592.3503417013737Z" style="stroke: rgb(0, 0, 0); stroke-opacity: 0.2; fill: rgb(0, 0, 0); fill-opacity: 0.2; stroke-width: 1; opacity: 1;"/><path class="sankey-link" d="M20,592.4594445339286C320,592.4594445339286 320,567.3770795462389 620,567.3770795462389L620,567.4234796014633C320,567.4234796014633 320,592.5058445891531 20,592.5058445891531Z" style="stroke: rgb(0, 0, 0); stroke-opacity: 0.2; fill: rgb(0, 0, 0); fill-opacity: 0.2; stroke-width: 1; opacity: 1;"/><path class="sankey-link" d="M20,575.1118525506799C320,575.1118525506799 320,613.9767712096458 620,613.9767712096458L620,614.0093766538577C320,614.0093766538577 320,575.1444579948918 20,575.1444579948918Z" style="stroke: rgb(0, 0, 0); stroke-opacity: 0.2; fill: rgb(0, 0, 0); fill-opacity: 0.2; stroke-width: 1; opacity: 1;"/><path class="sankey-link" d="M20,575.0842633286546C320,575.0842633286546 320,567.3494903242135 620,567.3494903242135L620,567.377079546239C320,567.377079546239 320,575.11185255068 20,575.11185255068Z" style="stroke: rgb(0, 0, 0); stroke-opacity: 0.2; fill: rgb(0, 0, 0); fill-opacity: 0.2; stroke-width: 1; opacity: 1;"/><path class="sankey-link" d="M20,575.0817552175614C320,575.0817552175614 320,545.4170712625693 620,545.4170712625693L620,545.4195793736625C320,545.4195793736625 320,575.0842633286546 20,575.0842633286546Z" style="stroke: rgb(0, 0, 0); stroke-opacity: 0.2; fill: rgb(0, 0, 0); fill-opacity: 0.2; stroke-width: 1; opacity: 1;"/></g><g class="sankey-node-set" style="cursor: move;"><g class="sankey-node" transform="translate(0.000,0.000)" style="opacity: 1;"><rect class="node-rect" width="20" height="277.61529257461046" style="stroke-width: 0.5; stroke: rgb(0, 0, 0); stroke-opacity: 1; fill: rgb(166, 206, 227); fill-opacity: 1;"/><text class="node-label" data-notex="1" x="0" y="0" text-anchor="start" transform="translate(23.25,142.30764628730523)" style="cursor: default; font-family: 'Open Sans', verdana, arial, sans-serif; font-size: 10px; fill: rgb(42, 63, 95); fill-opacity: 1; text-shadow: rgb(255, 255, 255) 1px 1px 1px, rgb(255, 255, 255) -1px -1px 1px, rgb(255, 255, 255) 1px -1px 1px, rgb(255, 255, 255) -1px 1px 1px; white-space: pre;">Canonical+Unmodified/Expected (221374)</text></g><g class="sankey-node" transform="translate(0.000,406.654)" style="opacity: 1;"><rect class="node-rect" width="20" height="153.16909040705002" style="stroke-width: 0.5; stroke: rgb(0, 0, 0); stroke-opacity: 1; fill: rgb(166, 206, 227); fill-opacity: 1;"/><text class="node-label" data-notex="1" x="0" y="0" text-anchor="start" transform="translate(23.25,80.08454520352501)" style="cursor: default; font-family: 'Open Sans', verdana, arial, sans-serif; font-size: 10px; fill: rgb(42, 63, 95); fill-opacity: 1; text-shadow: rgb(255, 255, 255) 1px 1px 1px, rgb(255, 255, 255) -1px -1px 1px, rgb(255, 255, 255) 1px -1px 1px, rgb(255, 255, 255) -1px 1px 1px; white-space: pre;">Canonical+Unexpected (122139)</text></g><g class="sankey-node" transform="translate(0.000,609.455)" style="opacity: 1;"><rect class="node-rect" width="20" height="10.545353091419429" style="stroke-width: 0.5; stroke: rgb(0, 0, 0); stroke-opacity: 1; fill: rgb(31, 120, 180); fill-opacity: 1;"/><text class="node-label" data-notex="1" x="0" y="0" text-anchor="start" transform="translate(23.25,8.772676545709714)" style="cursor: default; font-family: 'Open Sans', verdana, arial, sans-serif; font-size: 10px; fill: rgb(42, 63, 95); fill-opacity: 1; text-shadow: rgb(255, 255, 255) 1px 1px 1px, rgb(255, 255, 255) -1px -1px 1px, rgb(255, 255, 255) 1px -1px 1px, rgb(255, 255, 255) -1px 1px 1px; white-space: pre;">NonCanonical+Unexpected (8409)</text></g><g class="sankey-node" transform="translate(0.000,292.615)" style="opacity: 1;"><rect class="node-rect" width="20" height="99.03903679329937" style="stroke-width: 0.5; stroke: rgb(0, 0, 0); stroke-opacity: 1; fill: rgb(255, 255, 153); fill-opacity: 1;"/><text class="node-label" data-notex="1" x="0" y="0" text-anchor="start" transform="translate(23.25,53.01951839664969)" style="cursor: default; font-family: 'Open Sans', verdana, arial, sans-serif; font-size: 10px; fill: rgb(42, 63, 95); fill-opacity: 1; text-shadow: rgb(255, 255, 255) 1px 1px 1px, rgb(255, 255, 255) -1px -1px 1px, rgb(255, 255, 255) 1px -1px 1px, rgb(255, 255, 255) -1px 1px 1px; white-space: pre;">Unidentified (78975)</text></g><g class="sankey-node" transform="translate(0.000,590.144)" style="opacity: 1;"><rect class="node-rect" width="20" height="4.310188913688762" style="stroke-width: 0.5; stroke: rgb(0, 0, 0); stroke-opacity: 1; fill: rgb(202, 178, 214); fill-opacity: 1;"/><text class="node-label" data-notex="1" x="0" y="0" text-anchor="start" transform="translate(23.25,5.655094456844381)" style="cursor: default; font-family: 'Open Sans', verdana, arial, sans-serif; font-size: 10px; fill: rgb(42, 63, 95); fill-opacity: 1; text-shadow: rgb(255, 255, 255) 1px 1px 1px, rgb(255, 255, 255) -1px -1px 1px, rgb(255, 255, 255) 1px -1px 1px, rgb(255, 255, 255) -1px 1px 1px; white-space: pre;">Decoy (3437)</text></g><g class="sankey-node" transform="translate(0.000,574.823)" style="opacity: 1;"><rect class="node-rect" width="20" height="0.5" style="stroke-width: 0.5; stroke: rgb(0, 0, 0); stroke-opacity: 1; fill: rgb(31, 120, 180); fill-opacity: 1;"/><text class="node-label" data-notex="1" x="0" y="0" text-anchor="start" transform="translate(23.25,3.75)" style="cursor: default; font-family: 'Open Sans', verdana, arial, sans-serif; font-size: 10px; fill: rgb(42, 63, 95); fill-opacity: 1; text-shadow: rgb(255, 255, 255) 1px 1px 1px, rgb(255, 255, 255) -1px -1px 1px, rgb(255, 255, 255) 1px -1px 1px, rgb(255, 255, 255) -1px 1px 1px; white-space: pre;">NonCanonical+Unmodified/Expected (256)</text></g><g class="sankey-node" transform="translate(620.000,0.000)" style="opacity: 1;"><rect class="node-rect" width="20" height="368.79892542396277" style="stroke-width: 0.5; stroke: rgb(0, 0, 0); stroke-opacity: 1; fill: rgb(166, 206, 227); fill-opacity: 1;"/><text class="node-label" data-notex="1" x="0" y="0" text-anchor="end" transform="translate(-3.25,187.89946271198139)" style="cursor: default; font-family: 'Open Sans', verdana, arial, sans-serif; font-size: 10px; fill: rgb(42, 63, 95); fill-opacity: 1; text-shadow: rgb(255, 255, 255) 1px 1px 1px, rgb(255, 255, 255) -1px -1px 1px, rgb(255, 255, 255) 1px -1px 1px, rgb(255, 255, 255) -1px 1px 1px; white-space: pre;">Canonical+Unmodified/Expected (294085)</text></g><g class="sankey-node" transform="translate(620.000,383.799)" style="opacity: 1;"><rect class="node-rect" width="20" height="120.9097655261279" style="stroke-width: 0.5; stroke: rgb(0, 0, 0); stroke-opacity: 1; fill: rgb(166, 206, 227); fill-opacity: 1;"/><text class="node-label" data-notex="1" x="0" y="0" text-anchor="end" transform="translate(-3.25,63.95488276306395)" style="cursor: default; font-family: 'Open Sans', verdana, arial, sans-serif; font-size: 10px; fill: rgb(42, 63, 95); fill-opacity: 1; text-shadow: rgb(255, 255, 255) 1px 1px 1px, rgb(255, 255, 255) -1px -1px 1px, rgb(255, 255, 255) 1px -1px 1px, rgb(255, 255, 255) -1px 1px 1px; white-space: pre;">Canonical+Unexpected (96415)</text></g><g class="sankey-node" transform="translate(620.000,560.653)" style="opacity: 1;"><rect class="node-rect" width="20" height="7.530603557375912" style="stroke-width: 0.5; stroke: rgb(0, 0, 0); stroke-opacity: 1; fill: rgb(31, 120, 180); fill-opacity: 1;"/><text class="node-label" data-notex="1" x="0" y="0" text-anchor="end" transform="translate(-3.25,7.265301778687956)" style="cursor: default; font-family: 'Open Sans', verdana, arial, sans-serif; font-size: 10px; fill: rgb(42, 63, 95); fill-opacity: 1; text-shadow: rgb(255, 255, 255) 1px 1px 1px, rgb(255, 255, 255) -1px -1px 1px, rgb(255, 255, 255) 1px -1px 1px, rgb(255, 255, 255) -1px 1px 1px; white-space: pre;">NonCanonical+Unexpected (6005)</text></g><g class="sankey-node" transform="translate(620.000,583.183)" style="opacity: 1;"><rect class="node-rect" width="20" height="36.81656273729266" style="stroke-width: 0.5; stroke: rgb(0, 0, 0); stroke-opacity: 1; fill: rgb(255, 255, 153); fill-opacity: 1;"/><text class="node-label" data-notex="1" x="0" y="0" text-anchor="end" transform="translate(-3.25,21.90828136864633)" style="cursor: default; font-family: 'Open Sans', verdana, arial, sans-serif; font-size: 10px; fill: rgb(42, 63, 95); fill-opacity: 1; text-shadow: rgb(255, 255, 255) 1px 1px 1px, rgb(255, 255, 255) -1px -1px 1px, rgb(255, 255, 255) 1px -1px 1px, rgb(255, 255, 255) -1px 1px 1px; white-space: pre;">Unidentified (29358)</text></g><g class="sankey-node" transform="translate(620.000,540.719)" style="opacity: 1;"><rect class="node-rect" width="20" height="4.933454520352484" style="stroke-width: 0.5; stroke: rgb(0, 0, 0); stroke-opacity: 1; fill: rgb(202, 178, 214); fill-opacity: 1;"/><text class="node-label" data-notex="1" x="0" y="0" text-anchor="end" transform="translate(-3.25,5.966727260176242)" style="cursor: default; font-family: 'Open Sans', verdana, arial, sans-serif; font-size: 10px; fill: rgb(42, 63, 95); fill-opacity: 1; text-shadow: rgb(255, 255, 255) 1px 1px 1px, rgb(255, 255, 255) -1px -1px 1px, rgb(255, 255, 255) 1px -1px 1px, rgb(255, 255, 255) -1px 1px 1px; white-space: pre;">Decoy (3934)</text></g><g class="sankey-node" transform="translate(620.000,519.709)" style="opacity: 1;"><rect class="node-rect" width="20" height="6.010688234888107" style="stroke-width: 0.5; stroke: rgb(0, 0, 0); stroke-opacity: 1; fill: rgb(31, 120, 180); fill-opacity: 1;"/><text class="node-label" data-notex="1" x="0" y="0" text-anchor="end" transform="translate(-3.25,6.505344117444054)" style="cursor: default; font-family: 'Open Sans', verdana, arial, sans-serif; font-size: 10px; fill: rgb(42, 63, 95); fill-opacity: 1; text-shadow: rgb(255, 255, 255) 1px 1px 1px, rgb(255, 255, 255) -1px -1px 1px, rgb(255, 255, 255) 1px -1px 1px, rgb(255, 255, 255) -1px 1px 1px; white-space: pre;">NonCanonical+Unmodified/Expected (4793)</text></g></g></g><defs id="topdefs-c48133"><g class="clips"/></defs><g class="layer-above"><g class="imagelayer"/><g class="shapelayer"/></g><g class="infolayer"><g class="g-gtitle"><text class="gtitle" x="40" y="50" text-anchor="start" dy="0em" style="opacity: 1; font-family: 'Open Sans', verdana, arial, sans-serif; font-size: 14px; fill: rgb(42, 63, 95); fill-opacity: 1; white-space: pre;">FragPipe search (left) vs ionbot_open search (right)</text></g><g class="first-render"/></g></svg>