<svg class="main-svg" xmlns="http://www.w3.org/2000/svg" xmlns:xlink="http://www.w3.org/1999/xlink" width="800" height="800" style="" viewBox="0 0 800 800"><rect x="0" y="0" width="800" height="800" style="fill: rgb(255, 255, 255); fill-opacity: 1;"/><defs id="defs-d720d6"><g class="clips"/><g class="gradients"/><g class="patterns"/></defs><g class="bglayer"/><g class="layer-below"><g class="imagelayer"/><g class="shapelayer"/></g><g class="cartesianlayer"/><g class="polarlayer"/><g class="smithlayer"/><g class="ternarylayer"/><g class="geolayer"/><g class="funnelarealayer"/><g class="pielayer"/><g class="iciclelayer"/><g class="treemaplayer"/><g class="sunburstlayer"/><g class="glimages"/><g class="sankey" transform="translate(80,100)matrix(1 0 0 1 0 0)" style="box-sizing: content-box; position: absolute; left: 0px; shape-rendering: geometricprecision; pointer-events: none;"><g class="sankey-links" style="fill: none;"><path class="sankey-link" d="M20,30C320,30 320,-3.126388037344441e-13 620,-3.126388037344441e-13L620,258.3209863524115C320,258.3209863524115 320,288.3209863524118 20,288.3209863524118Z" style="stroke: rgb(68, 68, 68); stroke-opacity: 1; fill: rgb(0, 0, 0); fill-opacity: 0.2; stroke-width: 0; opacity: 1;"/><path class="sankey-link" d="M20,361.167338940005C320,361.167338940005 320,258.3209863524115 620,258.3209863524115L620,366.8248046892161C320,366.8248046892161 320,469.67115727680954 20,469.67115727680954Z" style="stroke: rgb(68, 68, 68); stroke-opacity: 1; fill: rgb(0, 0, 0); fill-opacity: 0.2; stroke-width: 0; opacity: 1;"/><path class="sankey-link" d="M20,469.6711572768096C320,469.6711572768096 320,454.0916400833088 620,454.0916400833088L620,553.7015457892836C320,553.7015457892836 320,569.2810629827844 20,569.2810629827844Z" style="stroke: rgb(68, 68, 68); stroke-opacity: 1; fill: rgb(0, 0, 0); fill-opacity: 0.2; stroke-width: 0; opacity: 1;"/><path class="sankey-link" d="M20,314.0304763913421C320,314.0304763913421 320,426.1039929228214 620,426.1039929228214L620,454.09164008330873C320,454.09164008330873 320,342.01812355182943 20,342.01812355182943Z" style="stroke: rgb(68, 68, 68); stroke-opacity: 1; fill: rgb(0, 0, 0); fill-opacity: 0.2; stroke-width: 0; opacity: 1;"/><path class="sankey-link" d="M20,288.3209863524118C320,288.3209863524118 320,382.6070730771368 620,382.6070730771368L620,408.31656311606713C320,408.31656311606713 320,314.0304763913421 20,314.0304763913421Z" style="stroke: rgb(68, 68, 68); stroke-opacity: 1; fill: rgb(0, 0, 0); fill-opacity: 0.2; stroke-width: 0; opacity: 1;"/><path class="sankey-link" d="M20,569.2810629827844C320,569.2810629827844 320,572.6192735932788 620,572.6192735932788L620,577.8780329194236C320,577.8780329194236 320,574.5398223089293 20,574.5398223089293Z" style="stroke: rgb(68, 68, 68); stroke-opacity: 1; fill: rgb(0, 0, 0); fill-opacity: 0.2; stroke-width: 0; opacity: 1;"/><path class="sankey-link" d="M20,578.5884603329437C320,578.5884603329437 320,614.6039445894445 620,614.6039445894445L620,618.8856666637372C320,618.8856666637372 320,582.8701824072364 20,582.8701824072364Z" style="stroke: rgb(68, 68, 68); stroke-opacity: 1; fill: rgb(0, 0, 0); fill-opacity: 0.2; stroke-width: 0; opacity: 1;"/><path class="sankey-link" d="M20,574.5398223089293C320,574.5398223089293 320,594.3866933818423 620,594.3866933818423L620,598.4353314058566C320,598.4353314058566 320,578.5884603329436 20,578.5884603329436Z" style="stroke: rgb(68, 68, 68); stroke-opacity: 1; fill: rgb(0, 0, 0); fill-opacity: 0.2; stroke-width: 0; opacity: 1;"/><path class="sankey-link" d="M20,342.01812355182943C320,342.01812355182943 320,570.4369044375896 620,570.4369044375896L620,572.6192735932789C320,572.6192735932789 320,344.20049270751855 20,344.20049270751855Z" style="stroke: rgb(68, 68, 68); stroke-opacity: 1; fill: rgb(0, 0, 0); fill-opacity: 0.2; stroke-width: 0; opacity: 1;"/><path class="sankey-link" d="M20,598.275684796077C320,598.275684796077 320,408.31656311606713 620,408.31656311606713L620,410.1556920607298C320,410.1556920607298 320,600.1148137407397 20,600.1148137407397Z" style="stroke: rgb(68, 68, 68); stroke-opacity: 1; fill: rgb(0, 0, 0); fill-opacity: 0.2; stroke-width: 0; opacity: 1;"/><path class="sankey-link" d="M20,344.20049270751855C320,344.20049270751855 320,593.2500095202105 620,593.2500095202105L620,594.3866933818423C320,594.3866933818423 320,345.33717656915036 20,345.33717656915036Z" style="stroke: rgb(68, 68, 68); stroke-opacity: 1; fill: rgb(0, 0, 0); fill-opacity: 0.2; stroke-width: 0; opacity: 1;"/><path class="sankey-link" d="M20,618.9239818500846C320,618.9239818500846 320,618.9239818500845 620,618.9239818500845L620,619.9999999999999C320,619.9999999999999 320,620 20,620Z" style="stroke: rgb(68, 68, 68); stroke-opacity: 1; fill: rgb(0, 0, 0); fill-opacity: 0.2; stroke-width: 0; opacity: 1;"/><path class="sankey-link" d="M20,617.6100902515973C320,617.6100902515973 320,554.4710424484219 620,554.4710424484219L620,555.4369044375894C320,555.4369044375894 320,618.5759522407648 20,618.5759522407648Z" style="stroke: rgb(0, 0, 0); stroke-opacity: 0.2; fill: rgb(0, 0, 0); fill-opacity: 0.2; stroke-width: 1; opacity: 1;"/><path class="sankey-link" d="M20,616.6617893895055C320,616.6617893895055 320,410.1556920607298 620,410.1556920607298L620,411.10399292282153C320,411.10399292282153 320,617.6100902515972 20,617.6100902515972Z" style="stroke: rgb(0, 0, 0); stroke-opacity: 0.2; fill: rgb(0, 0, 0); fill-opacity: 0.2; stroke-width: 1; opacity: 1;"/><path class="sankey-link" d="M20,345.33717656915036C320,345.33717656915036 320,613.7737822185898 620,613.7737822185898L620,614.6039445894444C320,614.6039445894444 320,346.1673389400051 20,346.1673389400051Z" style="stroke: rgb(0, 0, 0); stroke-opacity: 0.2; fill: rgb(0, 0, 0); fill-opacity: 0.2; stroke-width: 1; opacity: 1;"/><path class="sankey-link" d="M20,600.1148137407397C320,600.1148137407397 320,553.7015457892836 620,553.7015457892836L620,554.471042448422C320,554.471042448422 320,600.8843103998781 20,600.8843103998781Z" style="stroke: rgb(0, 0, 0); stroke-opacity: 0.2; fill: rgb(0, 0, 0); fill-opacity: 0.2; stroke-width: 1; opacity: 1;"/><path class="sankey-link" d="M20,597.8701824072365C320,597.8701824072365 320,366.8248046892161 620,366.8248046892161L620,367.2303070780566C320,367.2303070780566 320,598.2756847960771 20,598.2756847960771Z" style="stroke: rgb(0, 0, 0); stroke-opacity: 0.2; fill: rgb(0, 0, 0); fill-opacity: 0.2; stroke-width: 1; opacity: 1;"/><path class="sankey-link" d="M20,616.2850233904253C320,616.2850233904253 320,367.2303070780566 620,367.2303070780566L620,367.6070730771369C320,367.6070730771369 320,616.6617893895054 20,616.6617893895054Z" style="stroke: rgb(0, 0, 0); stroke-opacity: 0.2; fill: rgb(0, 0, 0); fill-opacity: 0.2; stroke-width: 1; opacity: 1;"/><path class="sankey-link" d="M20,618.5759522407648C320,618.5759522407648 320,577.9546632921179 620,577.9546632921179L620,578.2500095202104C320,578.2500095202104 320,618.8712984688573 20,618.8712984688573Z" style="stroke: rgb(0, 0, 0); stroke-opacity: 0.2; fill: rgb(0, 0, 0); fill-opacity: 0.2; stroke-width: 1; opacity: 1;"/><path class="sankey-link" d="M20,600.9609407725723C320,600.9609407725723 320,598.4353314058567 620,598.4353314058567L620,598.7210988373624C320,598.7210988373624 320,601.246708204078 20,601.246708204078Z" style="stroke: rgb(0, 0, 0); stroke-opacity: 0.2; fill: rgb(0, 0, 0); fill-opacity: 0.2; stroke-width: 1; opacity: 1;"/><path class="sankey-link" d="M20,600.884310399878C320,600.884310399878 320,577.8780329194236 620,577.8780329194236L620,577.954663292118C320,577.954663292118 320,600.9609407725724 20,600.9609407725724Z" style="stroke: rgb(0, 0, 0); stroke-opacity: 0.2; fill: rgb(0, 0, 0); fill-opacity: 0.2; stroke-width: 1; opacity: 1;"/><path class="sankey-link" d="M20,618.8712984688573C320,618.8712984688573 320,598.7210988373624 620,598.7210988373624L620,598.7737822185898C320,598.7737822185898 320,618.9239818500846 20,618.9239818500846Z" style="stroke: rgb(0, 0, 0); stroke-opacity: 0.2; fill: rgb(0, 0, 0); fill-opacity: 0.2; stroke-width: 1; opacity: 1;"/><path class="sankey-link" d="M20,601.246708204078C320,601.246708204078 320,618.8856666637373 620,618.8856666637373L620,618.9239818500844C320,618.9239818500844 320,601.2850233904251 20,601.2850233904251Z" style="stroke: rgb(0, 0, 0); stroke-opacity: 0.2; fill: rgb(0, 0, 0); fill-opacity: 0.2; stroke-width: 1; opacity: 1;"/></g><g class="sankey-node-set" style="cursor: move;"><g class="sankey-node" transform="translate(0.000,30.000)" style="opacity: 1;"><rect class="node-rect" width="20" height="316.167338940005" style="stroke-width: 0.5; stroke: rgb(0, 0, 0); stroke-opacity: 1; fill: rgb(166, 206, 227); fill-opacity: 1;"/><text class="node-label" data-notex="1" x="0" y="0" text-anchor="start" transform="translate(23.25,161.5836694700025)" style="cursor: default; font-family: 'Open Sans', verdana, arial, sans-serif; font-size: 10px; fill: rgb(42, 63, 95); fill-opacity: 1; text-shadow: rgb(255, 255, 255) 1px 1px 1px, rgb(255, 255, 255) -1px -1px 1px, rgb(255, 255, 255) 1px -1px 1px, rgb(255, 255, 255) -1px 1px 1px; white-space: pre;">Canonical+Unmodified/Expected (198042)</text></g><g class="sankey-node" transform="translate(0.000,361.167)" style="opacity: 1;"><rect class="node-rect" width="20" height="221.7028434672315" style="stroke-width: 0.5; stroke: rgb(0, 0, 0); stroke-opacity: 1; fill: rgb(255, 255, 153); fill-opacity: 1;"/><text class="node-label" data-notex="1" x="0" y="0" text-anchor="start" transform="translate(23.25,114.35142173361575)" style="cursor: default; font-family: 'Open Sans', verdana, arial, sans-serif; font-size: 10px; fill: rgb(42, 63, 95); fill-opacity: 1; text-shadow: rgb(255, 255, 255) 1px 1px 1px, rgb(255, 255, 255) -1px -1px 1px, rgb(255, 255, 255) 1px -1px 1px, rgb(255, 255, 255) -1px 1px 1px; white-space: pre;">Unidentified (138871)</text></g><g class="sankey-node" transform="translate(0.000,616.285)" style="opacity: 1;"><rect class="node-rect" width="20" height="3.7149766095747054" style="stroke-width: 0.5; stroke: rgb(0, 0, 0); stroke-opacity: 1; fill: rgb(31, 120, 180); fill-opacity: 1;"/><text class="node-label" data-notex="1" x="0" y="0" text-anchor="start" transform="translate(23.25,5.357488304787353)" style="cursor: default; font-family: 'Open Sans', verdana, arial, sans-serif; font-size: 10px; fill: rgb(42, 63, 95); fill-opacity: 1; text-shadow: rgb(255, 255, 255) 1px 1px 1px, rgb(255, 255, 255) -1px -1px 1px, rgb(255, 255, 255) 1px -1px 1px, rgb(255, 255, 255) -1px 1px 1px; white-space: pre;">NonCanonical+Unmodified/Expected (2327)</text></g><g class="sankey-node" transform="translate(0.000,597.870)" style="opacity: 1;"><rect class="node-rect" width="20" height="3.4148409831888102" style="stroke-width: 0.5; stroke: rgb(0, 0, 0); stroke-opacity: 1; fill: rgb(202, 178, 214); fill-opacity: 1;"/><text class="node-label" data-notex="1" x="0" y="0" text-anchor="start" transform="translate(23.25,5.207420491594405)" style="cursor: default; font-family: 'Open Sans', verdana, arial, sans-serif; font-size: 10px; fill: rgb(42, 63, 95); fill-opacity: 1; text-shadow: rgb(255, 255, 255) 1px 1px 1px, rgb(255, 255, 255) -1px -1px 1px, rgb(255, 255, 255) 1px -1px 1px, rgb(255, 255, 255) -1px 1px 1px; white-space: pre;">Decoy (2139)</text></g><g class="sankey-node" transform="translate(620.000,-0.000)" style="opacity: 1;"><rect class="node-rect" width="20" height="367.6070730771371" style="stroke-width: 0.5; stroke: rgb(0, 0, 0); stroke-opacity: 1; fill: rgb(166, 206, 227); fill-opacity: 1;"/><text class="node-label" data-notex="1" x="0" y="0" text-anchor="end" transform="translate(-3.25,187.30353653856855)" style="cursor: default; font-family: 'Open Sans', verdana, arial, sans-serif; font-size: 10px; fill: rgb(42, 63, 95); fill-opacity: 1; text-shadow: rgb(255, 255, 255) 1px 1px 1px, rgb(255, 255, 255) -1px -1px 1px, rgb(255, 255, 255) 1px -1px 1px, rgb(255, 255, 255) -1px 1px 1px; white-space: pre;">Canonical+Unmodified/Expected (230263)</text></g><g class="sankey-node" transform="translate(620.000,382.607)" style="opacity: 1;"><rect class="node-rect" width="20" height="28.4969198456846" style="stroke-width: 0.5; stroke: rgb(0, 0, 0); stroke-opacity: 1; fill: rgb(255, 255, 153); fill-opacity: 1;"/><text class="node-label" data-notex="1" x="0" y="0" text-anchor="end" transform="translate(-3.25,17.7484599228423)" style="cursor: default; font-family: 'Open Sans', verdana, arial, sans-serif; font-size: 10px; fill: rgb(42, 63, 95); fill-opacity: 1; text-shadow: rgb(255, 255, 255) 1px 1px 1px, rgb(255, 255, 255) -1px -1px 1px, rgb(255, 255, 255) 1px -1px 1px, rgb(255, 255, 255) -1px 1px 1px; white-space: pre;">Unidentified (17850)</text></g><g class="sankey-node" transform="translate(620.000,426.104)" style="opacity: 1;"><rect class="node-rect" width="20" height="129.33291151476823" style="stroke-width: 0.5; stroke: rgb(0, 0, 0); stroke-opacity: 1; fill: rgb(166, 206, 227); fill-opacity: 1;"/><text class="node-label" data-notex="1" x="0" y="0" text-anchor="end" transform="translate(-3.25,68.16645575738411)" style="cursor: default; font-family: 'Open Sans', verdana, arial, sans-serif; font-size: 10px; fill: rgb(42, 63, 95); fill-opacity: 1; text-shadow: rgb(255, 255, 255) 1px 1px 1px, rgb(255, 255, 255) -1px -1px 1px, rgb(255, 255, 255) 1px -1px 1px, rgb(255, 255, 255) -1px 1px 1px; white-space: pre;">Canonical+Unexpected (81012)</text></g><g class="sankey-node" transform="translate(620.000,613.774)" style="opacity: 1;"><rect class="node-rect" width="20" height="6.2262177814102415" style="stroke-width: 0.5; stroke: rgb(0, 0, 0); stroke-opacity: 1; fill: rgb(31, 120, 180); fill-opacity: 1;"/><text class="node-label" data-notex="1" x="0" y="0" text-anchor="end" transform="translate(-3.25,6.613108890705121)" style="cursor: default; font-family: 'Open Sans', verdana, arial, sans-serif; font-size: 10px; fill: rgb(42, 63, 95); fill-opacity: 1; text-shadow: rgb(255, 255, 255) 1px 1px 1px, rgb(255, 255, 255) -1px -1px 1px, rgb(255, 255, 255) 1px -1px 1px, rgb(255, 255, 255) -1px 1px 1px; white-space: pre;">NonCanonical+Unmodified/Expected (3900)</text></g><g class="sankey-node" transform="translate(620.000,593.250)" style="opacity: 1;"><rect class="node-rect" width="20" height="5.523772698379275" style="stroke-width: 0.5; stroke: rgb(0, 0, 0); stroke-opacity: 1; fill: rgb(202, 178, 214); fill-opacity: 1;"/><text class="node-label" data-notex="1" x="0" y="0" text-anchor="end" transform="translate(-3.25,6.261886349189638)" style="cursor: default; font-family: 'Open Sans', verdana, arial, sans-serif; font-size: 10px; fill: rgb(42, 63, 95); fill-opacity: 1; text-shadow: rgb(255, 255, 255) 1px 1px 1px, rgb(255, 255, 255) -1px -1px 1px, rgb(255, 255, 255) 1px -1px 1px, rgb(255, 255, 255) -1px 1px 1px; white-space: pre;">Decoy (3460)</text></g><g class="sankey-node" transform="translate(620.000,570.437)" style="opacity: 1;"><rect class="node-rect" width="20" height="7.813105082620837" style="stroke-width: 0.5; stroke: rgb(0, 0, 0); stroke-opacity: 1; fill: rgb(31, 120, 180); fill-opacity: 1;"/><text class="node-label" data-notex="1" x="0" y="0" text-anchor="end" transform="translate(-3.25,7.406552541310418)" style="cursor: default; font-family: 'Open Sans', verdana, arial, sans-serif; font-size: 10px; fill: rgb(42, 63, 95); fill-opacity: 1; text-shadow: rgb(255, 255, 255) 1px 1px 1px, rgb(255, 255, 255) -1px -1px 1px, rgb(255, 255, 255) 1px -1px 1px, rgb(255, 255, 255) -1px 1px 1px; white-space: pre;">NonCanonical+Unexpected (4894)</text></g></g></g><defs id="topdefs-d720d6"><g class="clips"/></defs><g class="layer-above"><g class="imagelayer"/><g class="shapelayer"/></g><g class="infolayer"><g class="g-gtitle"><text class="gtitle" x="40" y="50" text-anchor="start" dy="0em" style="opacity: 1; font-family: 'Open Sans', verdana, arial, sans-serif; font-size: 14px; fill: rgb(42, 63, 95); fill-opacity: 1; white-space: pre;">ionbot_closed search (left) vs ionbot_open search (right)</text></g><g class="first-render"/></g></svg>