<svg class="main-svg" xmlns="http://www.w3.org/2000/svg" xmlns:xlink="http://www.w3.org/1999/xlink" width="800" height="800" style="" viewBox="0 0 800 800"><rect x="0" y="0" width="800" height="800" style="fill: rgb(255, 255, 255); fill-opacity: 1;"/><defs id="defs-f4dade"><g class="clips"/><g class="gradients"/><g class="patterns"/></defs><g class="bglayer"/><g class="layer-below"><g class="imagelayer"/><g class="shapelayer"/></g><g class="cartesianlayer"/><g class="polarlayer"/><g class="smithlayer"/><g class="ternarylayer"/><g class="geolayer"/><g class="funnelarealayer"/><g class="pielayer"/><g class="iciclelayer"/><g class="treemaplayer"/><g class="sunburstlayer"/><g class="glimages"/><g class="sankey" transform="translate(80,100)matrix(1 0 0 1 0 0)" style="box-sizing: content-box; position: absolute; left: 0px; shape-rendering: geometricprecision; pointer-events: none;"><g class="sankey-links" style="fill: none;"><path class="sankey-link" d="M20,29.99999999999983C320,29.99999999999983 320,-4.547473508864641e-13 620,-4.547473508864641e-13L620,262.49705311536263C320,262.49705311536263 320,292.4970531153629 20,292.4970531153629Z" style="stroke: rgb(68, 68, 68); stroke-opacity: 1; fill: rgb(0, 0, 0); fill-opacity: 0.2; stroke-width: 0; opacity: 1;"/><path class="sankey-link" d="M20,366.2785609677686C320,366.2785609677686 320,262.49705311536263 620,262.49705311536263L620,373.0615750056552C320,373.0615750056552 320,476.84308285806117 20,476.84308285806117Z" style="stroke: rgb(68, 68, 68); stroke-opacity: 1; fill: rgb(0, 0, 0); fill-opacity: 0.2; stroke-width: 0; opacity: 1;"/><path class="sankey-link" d="M20,476.84308285806117C320,476.84308285806117 320,461.7700804886466 620,461.7700804886466L620,563.7446569111881C320,563.7446569111881 320,578.8176592806027 20,578.8176592806027Z" style="stroke: rgb(68, 68, 68); stroke-opacity: 1; fill: rgb(0, 0, 0); fill-opacity: 0.2; stroke-width: 0; opacity: 1;"/><path class="sankey-link" d="M20,320.5380743448389C320,320.5380743448389 320,433.3299796397057 620,433.3299796397057L620,461.7700804886466C320,461.7700804886466 320,348.9781751937798 20,348.9781751937798Z" style="stroke: rgb(68, 68, 68); stroke-opacity: 1; fill: rgb(0, 0, 0); fill-opacity: 0.2; stroke-width: 0; opacity: 1;"/><path class="sankey-link" d="M20,292.4970531153629C320,292.4970531153629 320,388.5498797432932 620,388.5498797432932L620,416.5909009727692C320,416.5909009727692 320,320.5380743448389 20,320.5380743448389Z" style="stroke: rgb(68, 68, 68); stroke-opacity: 1; fill: rgb(0, 0, 0); fill-opacity: 0.2; stroke-width: 0; opacity: 1;"/><path class="sankey-link" d="M20,578.8176592806028C320,578.8176592806028 320,580.9509507423766 620,580.9509507423766L620,583.6212151880645C320,583.6212151880645 320,581.4879237262908 20,581.4879237262908Z" style="stroke: rgb(68, 68, 68); stroke-opacity: 1; fill: rgb(0, 0, 0); fill-opacity: 0.2; stroke-width: 0; opacity: 1;"/><path class="sankey-link" d="M20,581.4879237262909C320,581.4879237262909 320,599.4761540476501 620,599.4761540476501L620,601.8690094895636C320,601.8690094895636 320,583.8807791682044 20,583.8807791682044Z" style="stroke: rgb(68, 68, 68); stroke-opacity: 1; fill: rgb(0, 0, 0); fill-opacity: 0.2; stroke-width: 0; opacity: 1;"/><path class="sankey-link" d="M20,583.8807791682045C320,583.8807791682045 320,617.3962488242227 620,617.3962488242227L620,619.3575791491538C320,619.3575791491538 320,585.8421094931357 20,585.8421094931357Z" style="stroke: rgb(68, 68, 68); stroke-opacity: 1; fill: rgb(0, 0, 0); fill-opacity: 0.2; stroke-width: 0; opacity: 1;"/><path class="sankey-link" d="M20,601.1373635205447C320,601.1373635205447 320,416.5909009727692 620,416.5909009727692L620,417.98281281626873C320,417.98281281626873 320,602.5292753640443 20,602.5292753640443Z" style="stroke: rgb(68, 68, 68); stroke-opacity: 1; fill: rgb(0, 0, 0); fill-opacity: 0.2; stroke-width: 0; opacity: 1;"/><path class="sankey-link" d="M20,348.9781751937798C320,348.9781751937798 320,579.7537118839819 620,579.7537118839819L620,580.9509507423766C320,580.9509507423766 320,350.1754140521745 20,350.1754140521745Z" style="stroke: rgb(68, 68, 68); stroke-opacity: 1; fill: rgb(0, 0, 0); fill-opacity: 0.2; stroke-width: 0; opacity: 1;"/><path class="sankey-link" d="M20,350.1754140521746C320,350.1754140521746 320,598.7753313012727 620,598.7753313012727L620,599.4761540476502C320,599.4761540476502 320,350.876236798552 20,350.876236798552Z" style="stroke: rgb(0, 0, 0); stroke-opacity: 0.2; fill: rgb(0, 0, 0); fill-opacity: 0.2; stroke-width: 1; opacity: 1;"/><path class="sankey-link" d="M20,619.3624459737814C320,619.3624459737814 320,619.3624459737815 620,619.3624459737815L620,619.9999999999999C320,619.9999999999999 320,619.9999999999998 20,619.9999999999998Z" style="stroke: rgb(0, 0, 0); stroke-opacity: 0.2; fill: rgb(0, 0, 0); fill-opacity: 0.2; stroke-width: 1; opacity: 1;"/><path class="sankey-link" d="M20,618.6940687249215C320,618.6940687249215 320,564.2345839237021 620,564.2345839237021L620,564.7537118839816C320,564.7537118839816 320,619.2131966852011 20,619.2131966852011Z" style="stroke: rgb(0, 0, 0); stroke-opacity: 0.2; fill: rgb(0, 0, 0); fill-opacity: 0.2; stroke-width: 1; opacity: 1;"/><path class="sankey-link" d="M20,602.5292753640442C320,602.5292753640442 320,563.7446569111883 620,563.7446569111883L620,564.2345839237021C320,564.2345839237021 320,603.019202376558 20,603.019202376558Z" style="stroke: rgb(0, 0, 0); stroke-opacity: 0.2; fill: rgb(0, 0, 0); fill-opacity: 0.2; stroke-width: 1; opacity: 1;"/><path class="sankey-link" d="M20,350.876236798552C320,350.876236798552 320,616.993924655006 620,616.993924655006L620,617.3962488242227C320,617.3962488242227 320,351.2785609677686 20,351.2785609677686Z" style="stroke: rgb(0, 0, 0); stroke-opacity: 0.2; fill: rgb(0, 0, 0); fill-opacity: 0.2; stroke-width: 1; opacity: 1;"/><path class="sankey-link" d="M20,618.3469019014846C320,618.3469019014846 320,417.9828128162688 620,417.9828128162688L620,418.32997963970575C320,418.32997963970575 320,618.6940687249215 20,618.6940687249215Z" style="stroke: rgb(0, 0, 0); stroke-opacity: 0.2; fill: rgb(0, 0, 0); fill-opacity: 0.2; stroke-width: 1; opacity: 1;"/><path class="sankey-link" d="M20,600.8421094931357C320,600.8421094931357 320,373.0615750056552 620,373.0615750056552L620,373.3568290330642C320,373.3568290330642 320,601.1373635205448 20,601.1373635205448Z" style="stroke: rgb(0, 0, 0); stroke-opacity: 0.2; fill: rgb(0, 0, 0); fill-opacity: 0.2; stroke-width: 1; opacity: 1;"/><path class="sankey-link" d="M20,618.1538511912556C320,618.1538511912556 320,373.3568290330642 620,373.3568290330642L620,373.5498797432931C320,373.5498797432931 320,618.3469019014847 20,618.3469019014847Z" style="stroke: rgb(0, 0, 0); stroke-opacity: 0.2; fill: rgb(0, 0, 0); fill-opacity: 0.2; stroke-width: 1; opacity: 1;"/><path class="sankey-link" d="M20,619.2131966852011C320,619.2131966852011 320,583.6260820126922 620,583.6260820126922L620,583.7753313012727C320,583.7753313012727 320,619.3624459737815 20,619.3624459737815Z" style="stroke: rgb(0, 0, 0); stroke-opacity: 0.2; fill: rgb(0, 0, 0); fill-opacity: 0.2; stroke-width: 1; opacity: 1;"/><path class="sankey-link" d="M20,603.0240692011856C320,603.0240692011856 320,601.8690094895637 620,601.8690094895637L620,601.9939246550059C320,601.9939246550059 320,603.1489843666278 20,603.1489843666278Z" style="stroke: rgb(0, 0, 0); stroke-opacity: 0.2; fill: rgb(0, 0, 0); fill-opacity: 0.2; stroke-width: 1; opacity: 1;"/><path class="sankey-link" d="M20,603.1489843666279C320,603.1489843666279 320,619.3575791491539 620,619.3575791491539L620,619.3624459737816C320,619.3624459737816 320,603.1538511912556 20,603.1538511912556Z" style="stroke: rgb(0, 0, 0); stroke-opacity: 0.2; fill: rgb(0, 0, 0); fill-opacity: 0.2; stroke-width: 1; opacity: 1;"/><path class="sankey-link" d="M20,603.019202376558C320,603.019202376558 320,583.6212151880646 620,583.6212151880646L620,583.6260820126923C320,583.6260820126923 320,603.0240692011857 20,603.0240692011857Z" style="stroke: rgb(0, 0, 0); stroke-opacity: 0.2; fill: rgb(0, 0, 0); fill-opacity: 0.2; stroke-width: 1; opacity: 1;"/></g><g class="sankey-node-set" style="cursor: move;"><g class="sankey-node" transform="translate(0.000,30.000)" style="opacity: 1;"><rect class="node-rect" width="20" height="321.2785609677688" style="stroke-width: 0.5; stroke: rgb(0, 0, 0); stroke-opacity: 1; fill: rgb(166, 206, 227); fill-opacity: 1;"/><text class="node-label" data-notex="1" x="0" y="0" text-anchor="start" transform="translate(23.25,164.1392804838844)" style="cursor: default; font-family: 'Open Sans', verdana, arial, sans-serif; font-size: 10px; fill: rgb(42, 63, 95); fill-opacity: 1; text-shadow: rgb(255, 255, 255) 1px 1px 1px, rgb(255, 255, 255) -1px -1px 1px, rgb(255, 255, 255) 1px -1px 1px, rgb(255, 255, 255) -1px 1px 1px; white-space: pre;">Canonical+Unmodified/Expected (198042)</text></g><g class="sankey-node" transform="translate(0.000,366.279)" style="opacity: 1;"><rect class="node-rect" width="20" height="219.56354852536708" style="stroke-width: 0.5; stroke: rgb(0, 0, 0); stroke-opacity: 1; fill: rgb(255, 255, 153); fill-opacity: 1;"/><text class="node-label" data-notex="1" x="0" y="0" text-anchor="start" transform="translate(23.25,113.28177426268354)" style="cursor: default; font-family: 'Open Sans', verdana, arial, sans-serif; font-size: 10px; fill: rgb(42, 63, 95); fill-opacity: 1; text-shadow: rgb(255, 255, 255) 1px 1px 1px, rgb(255, 255, 255) -1px -1px 1px, rgb(255, 255, 255) 1px -1px 1px, rgb(255, 255, 255) -1px 1px 1px; white-space: pre;">Unidentified (135343)</text></g><g class="sankey-node" transform="translate(0.000,600.842)" style="opacity: 1;"><rect class="node-rect" width="20" height="2.3117416981199312" style="stroke-width: 0.5; stroke: rgb(0, 0, 0); stroke-opacity: 1; fill: rgb(202, 178, 214); fill-opacity: 1;"/><text class="node-label" data-notex="1" x="0" y="0" text-anchor="start" transform="translate(23.25,4.655870849059966)" style="cursor: default; font-family: 'Open Sans', verdana, arial, sans-serif; font-size: 10px; fill: rgb(42, 63, 95); fill-opacity: 1; text-shadow: rgb(255, 255, 255) 1px 1px 1px, rgb(255, 255, 255) -1px -1px 1px, rgb(255, 255, 255) 1px -1px 1px, rgb(255, 255, 255) -1px 1px 1px; white-space: pre;">Decoy (1425)</text></g><g class="sankey-node" transform="translate(0.000,618.154)" style="opacity: 1;"><rect class="node-rect" width="20" height="1.846148808744374" style="stroke-width: 0.5; stroke: rgb(0, 0, 0); stroke-opacity: 1; fill: rgb(31, 120, 180); fill-opacity: 1;"/><text class="node-label" data-notex="1" x="0" y="0" text-anchor="start" transform="translate(23.25,4.423074404372187)" style="cursor: default; font-family: 'Open Sans', verdana, arial, sans-serif; font-size: 10px; fill: rgb(42, 63, 95); fill-opacity: 1; text-shadow: rgb(255, 255, 255) 1px 1px 1px, rgb(255, 255, 255) -1px -1px 1px, rgb(255, 255, 255) 1px -1px 1px, rgb(255, 255, 255) -1px 1px 1px; white-space: pre;">NonCanonical+Unmodified/Expected (1138)</text></g><g class="sankey-node" transform="translate(620.000,-0.000)" style="opacity: 1;"><rect class="node-rect" width="20" height="373.5498797432937" style="stroke-width: 0.5; stroke: rgb(0, 0, 0); stroke-opacity: 1; fill: rgb(166, 206, 227); fill-opacity: 1;"/><text class="node-label" data-notex="1" x="0" y="0" text-anchor="end" transform="translate(-3.25,190.27493987164684)" style="cursor: default; font-family: 'Open Sans', verdana, arial, sans-serif; font-size: 10px; fill: rgb(42, 63, 95); fill-opacity: 1; text-shadow: rgb(255, 255, 255) 1px 1px 1px, rgb(255, 255, 255) -1px -1px 1px, rgb(255, 255, 255) 1px -1px 1px, rgb(255, 255, 255) -1px 1px 1px; white-space: pre;">Canonical+Unmodified/Expected (230263)</text></g><g class="sankey-node" transform="translate(620.000,433.330)" style="opacity: 1;"><rect class="node-rect" width="20" height="131.42373224427615" style="stroke-width: 0.5; stroke: rgb(0, 0, 0); stroke-opacity: 1; fill: rgb(178, 223, 138); fill-opacity: 1;"/><text class="node-label" data-notex="1" x="0" y="0" text-anchor="end" transform="translate(-3.25,69.21186612213808)" style="cursor: default; font-family: 'Open Sans', verdana, arial, sans-serif; font-size: 10px; fill: rgb(42, 63, 95); fill-opacity: 1; text-shadow: rgb(255, 255, 255) 1px 1px 1px, rgb(255, 255, 255) -1px -1px 1px, rgb(255, 255, 255) 1px -1px 1px, rgb(255, 255, 255) -1px 1px 1px; white-space: pre;">Canonical+Unexpected (81012)</text></g><g class="sankey-node" transform="translate(620.000,388.550)" style="opacity: 1;"><rect class="node-rect" width="20" height="29.78009989641248" style="stroke-width: 0.5; stroke: rgb(0, 0, 0); stroke-opacity: 1; fill: rgb(255, 255, 153); fill-opacity: 1;"/><text class="node-label" data-notex="1" x="0" y="0" text-anchor="end" transform="translate(-3.25,18.39004994820624)" style="cursor: default; font-family: 'Open Sans', verdana, arial, sans-serif; font-size: 10px; fill: rgb(42, 63, 95); fill-opacity: 1; text-shadow: rgb(255, 255, 255) 1px 1px 1px, rgb(255, 255, 255) -1px -1px 1px, rgb(255, 255, 255) 1px -1px 1px, rgb(255, 255, 255) -1px 1px 1px; white-space: pre;">Unidentified (18357)</text></g><g class="sankey-node" transform="translate(620.000,579.754)" style="opacity: 1;"><rect class="node-rect" width="20" height="4.021619417290822" style="stroke-width: 0.5; stroke: rgb(0, 0, 0); stroke-opacity: 1; fill: rgb(51, 160, 44); fill-opacity: 1;"/><text class="node-label" data-notex="1" x="0" y="0" text-anchor="end" transform="translate(-3.25,5.510809708645411)" style="cursor: default; font-family: 'Open Sans', verdana, arial, sans-serif; font-size: 10px; fill: rgb(42, 63, 95); fill-opacity: 1; text-shadow: rgb(255, 255, 255) 1px 1px 1px, rgb(255, 255, 255) -1px -1px 1px, rgb(255, 255, 255) 1px -1px 1px, rgb(255, 255, 255) -1px 1px 1px; white-space: pre;">NonCanonical+Unexpected (2479)</text></g><g class="sankey-node" transform="translate(620.000,598.775)" style="opacity: 1;"><rect class="node-rect" width="20" height="3.218593353733354" style="stroke-width: 0.5; stroke: rgb(0, 0, 0); stroke-opacity: 1; fill: rgb(202, 178, 214); fill-opacity: 1;"/><text class="node-label" data-notex="1" x="0" y="0" text-anchor="end" transform="translate(-3.25,5.109296676866677)" style="cursor: default; font-family: 'Open Sans', verdana, arial, sans-serif; font-size: 10px; fill: rgb(42, 63, 95); fill-opacity: 1; text-shadow: rgb(255, 255, 255) 1px 1px 1px, rgb(255, 255, 255) -1px -1px 1px, rgb(255, 255, 255) 1px -1px 1px, rgb(255, 255, 255) -1px 1px 1px; white-space: pre;">Decoy (1984)</text></g><g class="sankey-node" transform="translate(620.000,616.994)" style="opacity: 1;"><rect class="node-rect" width="20" height="3.006075344993974" style="stroke-width: 0.5; stroke: rgb(0, 0, 0); stroke-opacity: 1; fill: rgb(31, 120, 180); fill-opacity: 1;"/><text class="node-label" data-notex="1" x="0" y="0" text-anchor="end" transform="translate(-3.25,5.003037672496987)" style="cursor: default; font-family: 'Open Sans', verdana, arial, sans-serif; font-size: 10px; fill: rgb(42, 63, 95); fill-opacity: 1; text-shadow: rgb(255, 255, 255) 1px 1px 1px, rgb(255, 255, 255) -1px -1px 1px, rgb(255, 255, 255) 1px -1px 1px, rgb(255, 255, 255) -1px 1px 1px; white-space: pre;">NonCanonical+Unmodified/Expected (1853)</text></g></g></g><defs id="topdefs-f4dade"><g class="clips"/></defs><g class="layer-above"><g class="imagelayer"/><g class="shapelayer"/></g><g class="infolayer"><g class="g-gtitle"><text class="gtitle" x="40" y="50" text-anchor="start" dy="0em" style="opacity: 1; font-family: 'Open Sans', verdana, arial, sans-serif; font-size: 14px; fill: rgb(42, 63, 95); fill-opacity: 1; white-space: pre;">Closed search (left) vs Open PTM search (right)</text></g><g class="first-render"/></g></svg>