<svg class="main-svg" xmlns="http://www.w3.org/2000/svg" xmlns:xlink="http://www.w3.org/1999/xlink" width="800" height="800" style="" viewBox="0 0 800 800"><rect x="0" y="0" width="800" height="800" style="fill: rgb(255, 255, 255); fill-opacity: 1;"/><defs id="defs-566cca"><g class="clips"/><g class="gradients"/><g class="patterns"/></defs><g class="bglayer"/><g class="layer-below"><g class="imagelayer"/><g class="shapelayer"/></g><g class="cartesianlayer"/><g class="polarlayer"/><g class="smithlayer"/><g class="ternarylayer"/><g class="geolayer"/><g class="funnelarealayer"/><g class="pielayer"/><g class="iciclelayer"/><g class="treemaplayer"/><g class="sunburstlayer"/><g class="glimages"/><g class="sankey" transform="translate(80,100)matrix(1 0 0 1 0 0)" style="box-sizing: content-box; position: absolute; left: 0px; shape-rendering: geometricprecision; pointer-events: none;"><g class="sankey-links" style="fill: none;"><path class="sankey-link" d="M20,29.99999999999895C320,29.99999999999895 320,5.684341886080802e-14 620,5.684341886080802e-14L620,258.32098635241186C320,258.32098635241186 320,288.3209863524107 20,288.3209863524107Z" style="stroke: rgb(68, 68, 68); stroke-opacity: 1; fill: rgb(0, 0, 0); fill-opacity: 0.2; stroke-width: 0; opacity: 1;"/><path class="sankey-link" d="M20,361.1673389400042C320,361.1673389400042 320,258.32098635241186 620,258.32098635241186L620,366.8248046892164C320,366.8248046892164 320,469.67115727680874 20,469.67115727680874Z" style="stroke: rgb(68, 68, 68); stroke-opacity: 1; fill: rgb(0, 0, 0); fill-opacity: 0.2; stroke-width: 0; opacity: 1;"/><path class="sankey-link" d="M20,469.6711572768088C320,469.6711572768088 320,454.09164008330924 620,454.09164008330924L620,553.7015457892841C320,553.7015457892841 320,569.2810629827836 20,569.2810629827836Z" style="stroke: rgb(68, 68, 68); stroke-opacity: 1; fill: rgb(0, 0, 0); fill-opacity: 0.2; stroke-width: 0; opacity: 1;"/><path class="sankey-link" d="M20,314.0304763913411C320,314.0304763913411 320,426.1039929228219 620,426.1039929228219L620,454.0916400833092C320,454.0916400833092 320,342.0181235518284 20,342.0181235518284Z" style="stroke: rgb(68, 68, 68); stroke-opacity: 1; fill: rgb(0, 0, 0); fill-opacity: 0.2; stroke-width: 0; opacity: 1;"/><path class="sankey-link" d="M20,288.3209863524108C320,288.3209863524108 320,382.60707307713716 620,382.60707307713716L620,408.31656311606747C320,408.31656311606747 320,314.0304763913411 20,314.0304763913411Z" style="stroke: rgb(68, 68, 68); stroke-opacity: 1; fill: rgb(0, 0, 0); fill-opacity: 0.2; stroke-width: 0; opacity: 1;"/><path class="sankey-link" d="M20,569.2810629827836C320,569.2810629827836 320,572.619273593279 620,572.619273593279L620,577.8780329194238C320,577.8780329194238 320,574.5398223089285 20,574.5398223089285Z" style="stroke: rgb(68, 68, 68); stroke-opacity: 1; fill: rgb(0, 0, 0); fill-opacity: 0.2; stroke-width: 0; opacity: 1;"/><path class="sankey-link" d="M20,578.5884603329429C320,578.5884603329429 320,614.6039445894447 620,614.6039445894447L620,618.8856666637374C320,618.8856666637374 320,582.8701824072356 20,582.8701824072356Z" style="stroke: rgb(68, 68, 68); stroke-opacity: 1; fill: rgb(0, 0, 0); fill-opacity: 0.2; stroke-width: 0; opacity: 1;"/><path class="sankey-link" d="M20,574.5398223089285C320,574.5398223089285 320,594.3866933818425 620,594.3866933818425L620,598.4353314058568C320,598.4353314058568 320,578.5884603329428 20,578.5884603329428Z" style="stroke: rgb(68, 68, 68); stroke-opacity: 1; fill: rgb(0, 0, 0); fill-opacity: 0.2; stroke-width: 0; opacity: 1;"/><path class="sankey-link" d="M20,342.0181235518284C320,342.0181235518284 320,570.4369044375899 620,570.4369044375899L620,572.6192735932791C320,572.6192735932791 320,344.2004927075175 20,344.2004927075175Z" style="stroke: rgb(68, 68, 68); stroke-opacity: 1; fill: rgb(0, 0, 0); fill-opacity: 0.2; stroke-width: 0; opacity: 1;"/><path class="sankey-link" d="M20,598.275684796077C320,598.275684796077 320,408.31656311606747 620,408.31656311606747L620,410.15569206073013C320,410.15569206073013 320,600.1148137407397 20,600.1148137407397Z" style="stroke: rgb(68, 68, 68); stroke-opacity: 1; fill: rgb(0, 0, 0); fill-opacity: 0.2; stroke-width: 0; opacity: 1;"/><path class="sankey-link" d="M20,344.2004927075175C320,344.2004927075175 320,593.2500095202107 620,593.2500095202107L620,594.3866933818425C320,594.3866933818425 320,345.33717656914934 20,345.33717656914934Z" style="stroke: rgb(68, 68, 68); stroke-opacity: 1; fill: rgb(0, 0, 0); fill-opacity: 0.2; stroke-width: 0; opacity: 1;"/><path class="sankey-link" d="M20,618.9239818500846C320,618.9239818500846 320,618.9239818500847 620,618.9239818500847L620,620.0000000000001C320,620.0000000000001 320,620 20,620Z" style="stroke: rgb(68, 68, 68); stroke-opacity: 1; fill: rgb(0, 0, 0); fill-opacity: 0.2; stroke-width: 0; opacity: 1;"/><path class="sankey-link" d="M20,617.6100902515973C320,617.6100902515973 320,554.4710424484224 620,554.4710424484224L620,555.4369044375899C320,555.4369044375899 320,618.5759522407648 20,618.5759522407648Z" style="stroke: rgb(0, 0, 0); stroke-opacity: 0.2; fill: rgb(0, 0, 0); fill-opacity: 0.2; stroke-width: 1; opacity: 1;"/><path class="sankey-link" d="M20,616.6617893895055C320,616.6617893895055 320,410.15569206073013 620,410.15569206073013L620,411.1039929228219C320,411.1039929228219 320,617.6100902515972 20,617.6100902515972Z" style="stroke: rgb(0, 0, 0); stroke-opacity: 0.2; fill: rgb(0, 0, 0); fill-opacity: 0.2; stroke-width: 1; opacity: 1;"/><path class="sankey-link" d="M20,345.33717656914934C320,345.33717656914934 320,613.77378221859 620,613.77378221859L620,614.6039445894446C320,614.6039445894446 320,346.1673389400041 20,346.1673389400041Z" style="stroke: rgb(0, 0, 0); stroke-opacity: 0.2; fill: rgb(0, 0, 0); fill-opacity: 0.2; stroke-width: 1; opacity: 1;"/><path class="sankey-link" d="M20,600.1148137407397C320,600.1148137407397 320,553.7015457892841 620,553.7015457892841L620,554.4710424484225C320,554.4710424484225 320,600.8843103998781 20,600.8843103998781Z" style="stroke: rgb(0, 0, 0); stroke-opacity: 0.2; fill: rgb(0, 0, 0); fill-opacity: 0.2; stroke-width: 1; opacity: 1;"/><path class="sankey-link" d="M20,597.8701824072365C320,597.8701824072365 320,366.8248046892164 620,366.8248046892164L620,367.23030707805697C320,367.23030707805697 320,598.2756847960771 20,598.2756847960771Z" style="stroke: rgb(0, 0, 0); stroke-opacity: 0.2; fill: rgb(0, 0, 0); fill-opacity: 0.2; stroke-width: 1; opacity: 1;"/><path class="sankey-link" d="M20,616.2850233904253C320,616.2850233904253 320,367.23030707805697 620,367.23030707805697L620,367.6070730771372C320,367.6070730771372 320,616.6617893895054 20,616.6617893895054Z" style="stroke: rgb(0, 0, 0); stroke-opacity: 0.2; fill: rgb(0, 0, 0); fill-opacity: 0.2; stroke-width: 1; opacity: 1;"/><path class="sankey-link" d="M20,618.5759522407648C320,618.5759522407648 320,577.9546632921181 620,577.9546632921181L620,578.2500095202106C320,578.2500095202106 320,618.8712984688573 20,618.8712984688573Z" style="stroke: rgb(0, 0, 0); stroke-opacity: 0.2; fill: rgb(0, 0, 0); fill-opacity: 0.2; stroke-width: 1; opacity: 1;"/><path class="sankey-link" d="M20,600.9609407725723C320,600.9609407725723 320,598.4353314058569 620,598.4353314058569L620,598.7210988373627C320,598.7210988373627 320,601.246708204078 20,601.246708204078Z" style="stroke: rgb(0, 0, 0); stroke-opacity: 0.2; fill: rgb(0, 0, 0); fill-opacity: 0.2; stroke-width: 1; opacity: 1;"/><path class="sankey-link" d="M20,600.884310399878C320,600.884310399878 320,577.8780329194238 620,577.8780329194238L620,577.9546632921182C320,577.9546632921182 320,600.9609407725724 20,600.9609407725724Z" style="stroke: rgb(0, 0, 0); stroke-opacity: 0.2; fill: rgb(0, 0, 0); fill-opacity: 0.2; stroke-width: 1; opacity: 1;"/><path class="sankey-link" d="M20,618.8712984688573C320,618.8712984688573 320,598.7210988373627 620,598.7210988373627L620,598.77378221859C320,598.77378221859 320,618.9239818500846 20,618.9239818500846Z" style="stroke: rgb(0, 0, 0); stroke-opacity: 0.2; fill: rgb(0, 0, 0); fill-opacity: 0.2; stroke-width: 1; opacity: 1;"/><path class="sankey-link" d="M20,601.246708204078C320,601.246708204078 320,618.8856666637375 620,618.8856666637375L620,618.9239818500846C320,618.9239818500846 320,601.2850233904251 20,601.2850233904251Z" style="stroke: rgb(0, 0, 0); stroke-opacity: 0.2; fill: rgb(0, 0, 0); fill-opacity: 0.2; stroke-width: 1; opacity: 1;"/></g><g class="sankey-node-set" style="cursor: move;"><g class="sankey-node" transform="translate(0.000,30.000)" style="opacity: 1;"><rect class="node-rect" width="20" height="316.1673389400052" style="stroke-width: 0.5; stroke: rgb(0, 0, 0); stroke-opacity: 1; fill: rgb(166, 206, 227); fill-opacity: 1;"/><text class="node-label" data-notex="1" x="0" y="0" text-anchor="start" transform="translate(23.25,161.5836694700026)" style="cursor: default; font-family: 'Open Sans', verdana, arial, sans-serif; font-size: 10px; fill: rgb(42, 63, 95); fill-opacity: 1; text-shadow: rgb(255, 255, 255) 1px 1px 1px, rgb(255, 255, 255) -1px -1px 1px, rgb(255, 255, 255) 1px -1px 1px, rgb(255, 255, 255) -1px 1px 1px; white-space: pre;">Canonical+Unmodified/Expected (198042)</text></g><g class="sankey-node" transform="translate(0.000,361.167)" style="opacity: 1;"><rect class="node-rect" width="20" height="221.7028434672323" style="stroke-width: 0.5; stroke: rgb(0, 0, 0); stroke-opacity: 1; fill: rgb(255, 255, 153); fill-opacity: 1;"/><text class="node-label" data-notex="1" x="0" y="0" text-anchor="start" transform="translate(23.25,114.35142173361615)" style="cursor: default; font-family: 'Open Sans', verdana, arial, sans-serif; font-size: 10px; fill: rgb(42, 63, 95); fill-opacity: 1; text-shadow: rgb(255, 255, 255) 1px 1px 1px, rgb(255, 255, 255) -1px -1px 1px, rgb(255, 255, 255) 1px -1px 1px, rgb(255, 255, 255) -1px 1px 1px; white-space: pre;">Unidentified (138871)</text></g><g class="sankey-node" transform="translate(0.000,616.285)" style="opacity: 1;"><rect class="node-rect" width="20" height="3.7149766095747054" style="stroke-width: 0.5; stroke: rgb(0, 0, 0); stroke-opacity: 1; fill: rgb(31, 120, 180); fill-opacity: 1;"/><text class="node-label" data-notex="1" x="0" y="0" text-anchor="start" transform="translate(23.25,5.357488304787353)" style="cursor: default; font-family: 'Open Sans', verdana, arial, sans-serif; font-size: 10px; fill: rgb(42, 63, 95); fill-opacity: 1; text-shadow: rgb(255, 255, 255) 1px 1px 1px, rgb(255, 255, 255) -1px -1px 1px, rgb(255, 255, 255) 1px -1px 1px, rgb(255, 255, 255) -1px 1px 1px; white-space: pre;">NonCanonical+Unmodified/Expected (2327)</text></g><g class="sankey-node" transform="translate(0.000,597.870)" style="opacity: 1;"><rect class="node-rect" width="20" height="3.4148409831888102" style="stroke-width: 0.5; stroke: rgb(0, 0, 0); stroke-opacity: 1; fill: rgb(202, 178, 214); fill-opacity: 1;"/><text class="node-label" data-notex="1" x="0" y="0" text-anchor="start" transform="translate(23.25,5.207420491594405)" style="cursor: default; font-family: 'Open Sans', verdana, arial, sans-serif; font-size: 10px; fill: rgb(42, 63, 95); fill-opacity: 1; text-shadow: rgb(255, 255, 255) 1px 1px 1px, rgb(255, 255, 255) -1px -1px 1px, rgb(255, 255, 255) 1px -1px 1px, rgb(255, 255, 255) -1px 1px 1px; white-space: pre;">Decoy (2139)</text></g><g class="sankey-node" transform="translate(620.000,0.000)" style="opacity: 1;"><rect class="node-rect" width="20" height="367.6070730771371" style="stroke-width: 0.5; stroke: rgb(0, 0, 0); stroke-opacity: 1; fill: rgb(166, 206, 227); fill-opacity: 1;"/><text class="node-label" data-notex="1" x="0" y="0" text-anchor="end" transform="translate(-3.25,187.30353653856855)" style="cursor: default; font-family: 'Open Sans', verdana, arial, sans-serif; font-size: 10px; fill: rgb(42, 63, 95); fill-opacity: 1; text-shadow: rgb(255, 255, 255) 1px 1px 1px, rgb(255, 255, 255) -1px -1px 1px, rgb(255, 255, 255) 1px -1px 1px, rgb(255, 255, 255) -1px 1px 1px; white-space: pre;">Canonical+Unmodified/Expected (230263)</text></g><g class="sankey-node" transform="translate(620.000,426.104)" style="opacity: 1;"><rect class="node-rect" width="20" height="129.332911514768" style="stroke-width: 0.5; stroke: rgb(0, 0, 0); stroke-opacity: 1; fill: rgb(178, 223, 138); fill-opacity: 1;"/><text class="node-label" data-notex="1" x="0" y="0" text-anchor="end" transform="translate(-3.25,68.166455757384)" style="cursor: default; font-family: 'Open Sans', verdana, arial, sans-serif; font-size: 10px; fill: rgb(42, 63, 95); fill-opacity: 1; text-shadow: rgb(255, 255, 255) 1px 1px 1px, rgb(255, 255, 255) -1px -1px 1px, rgb(255, 255, 255) 1px -1px 1px, rgb(255, 255, 255) -1px 1px 1px; white-space: pre;">Canonical+Unexpected (81012)</text></g><g class="sankey-node" transform="translate(620.000,382.607)" style="opacity: 1;"><rect class="node-rect" width="20" height="28.496919845684715" style="stroke-width: 0.5; stroke: rgb(0, 0, 0); stroke-opacity: 1; fill: rgb(255, 255, 153); fill-opacity: 1;"/><text class="node-label" data-notex="1" x="0" y="0" text-anchor="end" transform="translate(-3.25,17.748459922842358)" style="cursor: default; font-family: 'Open Sans', verdana, arial, sans-serif; font-size: 10px; fill: rgb(42, 63, 95); fill-opacity: 1; text-shadow: rgb(255, 255, 255) 1px 1px 1px, rgb(255, 255, 255) -1px -1px 1px, rgb(255, 255, 255) 1px -1px 1px, rgb(255, 255, 255) -1px 1px 1px; white-space: pre;">Unidentified (17850)</text></g><g class="sankey-node" transform="translate(620.000,570.437)" style="opacity: 1;"><rect class="node-rect" width="20" height="7.813105082620837" style="stroke-width: 0.5; stroke: rgb(0, 0, 0); stroke-opacity: 1; fill: rgb(51, 160, 44); fill-opacity: 1;"/><text class="node-label" data-notex="1" x="0" y="0" text-anchor="end" transform="translate(-3.25,7.406552541310418)" style="cursor: default; font-family: 'Open Sans', verdana, arial, sans-serif; font-size: 10px; fill: rgb(42, 63, 95); fill-opacity: 1; text-shadow: rgb(255, 255, 255) 1px 1px 1px, rgb(255, 255, 255) -1px -1px 1px, rgb(255, 255, 255) 1px -1px 1px, rgb(255, 255, 255) -1px 1px 1px; white-space: pre;">NonCanonical+Unexpected (4894)</text></g><g class="sankey-node" transform="translate(620.000,613.774)" style="opacity: 1;"><rect class="node-rect" width="20" height="6.226217781410014" style="stroke-width: 0.5; stroke: rgb(0, 0, 0); stroke-opacity: 1; fill: rgb(31, 120, 180); fill-opacity: 1;"/><text class="node-label" data-notex="1" x="0" y="0" text-anchor="end" transform="translate(-3.25,6.613108890705007)" style="cursor: default; font-family: 'Open Sans', verdana, arial, sans-serif; font-size: 10px; fill: rgb(42, 63, 95); fill-opacity: 1; text-shadow: rgb(255, 255, 255) 1px 1px 1px, rgb(255, 255, 255) -1px -1px 1px, rgb(255, 255, 255) 1px -1px 1px, rgb(255, 255, 255) -1px 1px 1px; white-space: pre;">NonCanonical+Unmodified/Expected (3900)</text></g><g class="sankey-node" transform="translate(620.000,593.250)" style="opacity: 1;"><rect class="node-rect" width="20" height="5.523772698379275" style="stroke-width: 0.5; stroke: rgb(0, 0, 0); stroke-opacity: 1; fill: rgb(202, 178, 214); fill-opacity: 1;"/><text class="node-label" data-notex="1" x="0" y="0" text-anchor="end" transform="translate(-3.25,6.261886349189638)" style="cursor: default; font-family: 'Open Sans', verdana, arial, sans-serif; font-size: 10px; fill: rgb(42, 63, 95); fill-opacity: 1; text-shadow: rgb(255, 255, 255) 1px 1px 1px, rgb(255, 255, 255) -1px -1px 1px, rgb(255, 255, 255) 1px -1px 1px, rgb(255, 255, 255) -1px 1px 1px; white-space: pre;">Decoy (3460)</text></g></g></g><defs id="topdefs-566cca"><g class="clips"/></defs><g class="layer-above"><g class="imagelayer"/><g class="shapelayer"/></g><g class="infolayer"><g class="g-gtitle"><text class="gtitle" x="40" y="50" text-anchor="start" dy="0em" style="opacity: 1; font-family: 'Open Sans', verdana, arial, sans-serif; font-size: 14px; fill: rgb(42, 63, 95); fill-opacity: 1; white-space: pre;">Closed search (left) vs Open PTM search (right)</text></g><g class="first-render"/></g></svg>