<svg class="main-svg" xmlns="http://www.w3.org/2000/svg" xmlns:xlink="http://www.w3.org/1999/xlink" width="800" height="800" style="" viewBox="0 0 800 800"><rect x="0" y="0" width="800" height="800" style="fill: rgb(255, 255, 255); fill-opacity: 1;"/><defs id="defs-a27444"><g class="clips"/><g class="gradients"/><g class="patterns"/></defs><g class="bglayer"/><g class="layer-below"><g class="imagelayer"/><g class="shapelayer"/></g><g class="cartesianlayer"/><g class="polarlayer"/><g class="smithlayer"/><g class="ternarylayer"/><g class="geolayer"/><g class="funnelarealayer"/><g class="pielayer"/><g class="iciclelayer"/><g class="treemaplayer"/><g class="sunburstlayer"/><g class="glimages"/><g class="sankey" transform="translate(80,100)matrix(1 0 0 1 0 0)" style="box-sizing: content-box; position: absolute; left: 0px; shape-rendering: geometricprecision; pointer-events: none;"><g class="sankey-links" style="fill: none;"><path class="sankey-link" d="M20,5.428725936807723C320,5.428725936807723 320,5.684341886080801e-13 620,5.684341886080801e-13L620,360.7160060766704C320,360.7160060766704 320,366.14473201347755 20,366.14473201347755Z" style="stroke: rgb(68, 68, 68); stroke-opacity: 1; fill: rgb(0, 0, 0); fill-opacity: 0.2; stroke-width: 0; opacity: 1;"/><path class="sankey-link" d="M20,480.9384506818046C320,480.9384506818046 320,495.14538520080157 620,495.14538520080157L620,620.0000000000003C320,620.0000000000003 320,605.7930654810034 20,605.7930654810034Z" style="stroke: rgb(68, 68, 68); stroke-opacity: 1; fill: rgb(0, 0, 0); fill-opacity: 0.2; stroke-width: 0; opacity: 1;"/><path class="sankey-link" d="M20,366.14473201347755C320,366.14473201347755 320,380.92205592052534 620,380.92205592052534L620,404.875288306493C320,404.875288306493 320,390.09796439944523 20,390.09796439944523Z" style="stroke: rgb(68, 68, 68); stroke-opacity: 1; fill: rgb(0, 0, 0); fill-opacity: 0.2; stroke-width: 0; opacity: 1;"/><path class="sankey-link" d="M20,466.19592186573476C320,466.19592186573476 320,408.7289729436569 620,408.7289729436569L620,421.2228569095879C320,421.2228569095879 320,478.68980583166575 20,478.68980583166575Z" style="stroke: rgb(68, 68, 68); stroke-opacity: 1; fill: rgb(0, 0, 0); fill-opacity: 0.2; stroke-width: 0; opacity: 1;"/><path class="sankey-link" d="M20,433.36417444111294C320,433.36417444111294 320,404.875288306493 620,404.875288306493L620,408.72897294365697C320,408.72897294365697 320,437.2178590782769 20,437.2178590782769Z" style="stroke: rgb(68, 68, 68); stroke-opacity: 1; fill: rgb(0, 0, 0); fill-opacity: 0.2; stroke-width: 0; opacity: 1;"/><path class="sankey-link" d="M20,409.6604091801865C320,409.6604091801865 320,360.7160060766704 620,360.7160060766704L620,363.57011643062765C320,363.57011643062765 320,412.51451953414374 20,412.51451953414374Z" style="stroke: rgb(68, 68, 68); stroke-opacity: 1; fill: rgb(0, 0, 0); fill-opacity: 0.2; stroke-width: 0; opacity: 1;"/><path class="sankey-link" d="M20,464.1602228883298C320,464.1602228883298 320,363.8863569431207 620,363.8863569431207L620,365.9220559205257C320,365.9220559205257 320,466.1959218657348 20,466.1959218657348Z" style="stroke: rgb(68, 68, 68); stroke-opacity: 1; fill: rgb(0, 0, 0); fill-opacity: 0.2; stroke-width: 0; opacity: 1;"/><path class="sankey-link" d="M20,392.7423071772765C320,392.7423071772765 320,491.25991759755794 620,491.25991759755794L620,493.17801960046796C320,493.17801960046796 320,394.6604091801865 20,394.6604091801865Z" style="stroke: rgb(68, 68, 68); stroke-opacity: 1; fill: rgb(0, 0, 0); fill-opacity: 0.2; stroke-width: 0; opacity: 1;"/><path class="sankey-link" d="M20,416.19657615447727C320,416.19657615447727 320,493.17801960046796 620,493.17801960046796L620,495.02937737461065C320,495.02937737461065 320,418.04793392861995 20,418.04793392861995Z" style="stroke: rgb(68, 68, 68); stroke-opacity: 1; fill: rgb(0, 0, 0); fill-opacity: 0.2; stroke-width: 0; opacity: 1;"/><path class="sankey-link" d="M20,437.2830141587402C320,437.2830141587402 320,474.74704841216413 620,474.74704841216413L620,476.1439097713671C320,476.1439097713671 320,438.6798755179431 20,438.6798755179431Z" style="stroke: rgb(68, 68, 68); stroke-opacity: 1; fill: rgb(0, 0, 0); fill-opacity: 0.2; stroke-width: 0; opacity: 1;"/><path class="sankey-link" d="M20,479.44624042436266C320,479.44624042436266 320,456.7308449312004 620,456.7308449312004L620,458.10704736245157C320,458.10704736245157 320,480.8224428556138 20,480.8224428556138Z" style="stroke: rgb(68, 68, 68); stroke-opacity: 1; fill: rgb(0, 0, 0); fill-opacity: 0.2; stroke-width: 0; opacity: 1;"/><path class="sankey-link" d="M20,413.59355123254966C320,413.59355123254966 320,455.3244486821736 620,455.3244486821736L620,456.6990619651208C320,456.6990619651208 320,414.9681645154968 20,414.9681645154968Z" style="stroke: rgb(68, 68, 68); stroke-opacity: 1; fill: rgb(0, 0, 0); fill-opacity: 0.2; stroke-width: 0; opacity: 1;"/><path class="sankey-link" d="M20,414.96816451549677C320,414.96816451549677 320,473.51863677318363 620,473.51863677318363L620,474.7470484121641C320,474.7470484121641 320,416.1965761544772 20,416.1965761544772Z" style="stroke: rgb(68, 68, 68); stroke-opacity: 1; fill: rgb(0, 0, 0); fill-opacity: 0.2; stroke-width: 0; opacity: 1;"/><path class="sankey-link" d="M20,391.17381780124316C320,391.17381780124316 320,454.16754871687243 620,454.16754871687243L620,455.32444868217357C320,455.32444868217357 320,392.3307177665443 20,392.3307177665443Z" style="stroke: rgb(68, 68, 68); stroke-opacity: 1; fill: rgb(0, 0, 0); fill-opacity: 0.2; stroke-width: 0; opacity: 1;"/><path class="sankey-link" d="M20,412.51451953414374C320,412.51451953414374 320,437.2987103113859 620,437.2987103113859L620,438.37774200979175C320,438.37774200979175 320,413.5935512325496 20,413.5935512325496Z" style="stroke: rgb(68, 68, 68); stroke-opacity: 1; fill: rgb(0, 0, 0); fill-opacity: 0.2; stroke-width: 0; opacity: 1;"/><path class="sankey-link" d="M20,390.09796439944523C320,390.09796439944523 320,436.22285690958796 620,436.22285690958796L620,437.29871031138583C320,437.29871031138583 320,391.1738178012431 20,391.1738178012431Z" style="stroke: rgb(68, 68, 68); stroke-opacity: 1; fill: rgb(0, 0, 0); fill-opacity: 0.2; stroke-width: 0; opacity: 1;"/><path class="sankey-link" d="M20,478.68980583166575C320,478.68980583166575 320,438.41111412417547 620,438.41111412417547L620,439.1675487168724C320,439.1675487168724 320,479.44624042436266 20,479.44624042436266Z" style="stroke: rgb(0, 0, 0); stroke-opacity: 0.2; fill: rgb(0, 0, 0); fill-opacity: 0.2; stroke-width: 1; opacity: 1;"/><path class="sankey-link" d="M20,392.33071776654435C320,392.33071776654435 320,473.1070473624515 620,473.1070473624515L620,473.5186367731837C320,473.5186367731837 320,392.74230717727653 20,392.74230717727653Z" style="stroke: rgb(0, 0, 0); stroke-opacity: 0.2; fill: rgb(0, 0, 0); fill-opacity: 0.2; stroke-width: 1; opacity: 1;"/><path class="sankey-link" d="M20,433.0479339286199C320,433.0479339286199 320,363.57011643062765 620,363.57011643062765L620,363.88635694312063C320,363.88635694312063 320,433.3641744411129 20,433.3641744411129Z" style="stroke: rgb(0, 0, 0); stroke-opacity: 0.2; fill: rgb(0, 0, 0); fill-opacity: 0.2; stroke-width: 1; opacity: 1;"/><path class="sankey-link" d="M20,480.82244285561376C320,480.82244285561376 320,476.1439097713671 620,476.1439097713671L620,476.25991759755794C320,476.25991759755794 320,480.9384506818046 20,480.9384506818046Z" style="stroke: rgb(0, 0, 0); stroke-opacity: 0.2; fill: rgb(0, 0, 0); fill-opacity: 0.2; stroke-width: 1; opacity: 1;"/><path class="sankey-link" d="M20,438.6798755179431C320,438.6798755179431 320,495.02937737461065 620,495.02937737461065L620,495.1453852008015C320,495.1453852008015 320,438.795883344134 20,438.795883344134Z" style="stroke: rgb(0, 0, 0); stroke-opacity: 0.2; fill: rgb(0, 0, 0); fill-opacity: 0.2; stroke-width: 1; opacity: 1;"/><path class="sankey-link" d="M20,437.21785907827683C320,437.21785907827683 320,438.3777420097918 620,438.3777420097918L620,438.4111141241755C320,438.4111141241755 320,437.25123119266055 20,437.25123119266055Z" style="stroke: rgb(0, 0, 0); stroke-opacity: 0.2; fill: rgb(0, 0, 0); fill-opacity: 0.2; stroke-width: 1; opacity: 1;"/><path class="sankey-link" d="M20,437.2512311926605C320,437.2512311926605 320,456.69906196512073 620,456.69906196512073L620,456.73084493120047C320,456.73084493120047 320,437.28301415874023 20,437.28301415874023Z" style="stroke: rgb(0, 0, 0); stroke-opacity: 0.2; fill: rgb(0, 0, 0); fill-opacity: 0.2; stroke-width: 1; opacity: 1;"/></g><g class="sankey-node-set" style="cursor: move;"><g class="sankey-node" transform="translate(0.000,5.429)" style="opacity: 1;"><rect class="node-rect" width="20" height="389.23168324337877" style="stroke-width: 0.5; stroke: rgb(0, 0, 0); stroke-opacity: 1; fill: rgb(166, 206, 227); fill-opacity: 1;"/><text class="node-label" data-notex="1" x="0" y="0" text-anchor="start" transform="translate(23.25,198.11584162168938)" style="cursor: default; font-family: 'Open Sans', verdana, arial, sans-serif; font-size: 10px; fill: rgb(42, 63, 95); fill-opacity: 1; text-shadow: rgb(255, 255, 255) 1px 1px 1px, rgb(255, 255, 255) -1px -1px 1px, rgb(255, 255, 255) 1px -1px 1px, rgb(255, 255, 255) -1px 1px 1px; white-space: pre;">Canonical+Unmodified/Expected (244931)</text></g><g class="sankey-node" transform="translate(0.000,464.160)" style="opacity: 1;"><rect class="node-rect" width="20" height="141.63284259267357" style="stroke-width: 0.5; stroke: rgb(0, 0, 0); stroke-opacity: 1; fill: rgb(178, 223, 138); fill-opacity: 1;"/><text class="node-label" data-notex="1" x="0" y="0" text-anchor="start" transform="translate(23.25,74.31642129633678)" style="cursor: default; font-family: 'Open Sans', verdana, arial, sans-serif; font-size: 10px; fill: rgb(42, 63, 95); fill-opacity: 1; text-shadow: rgb(255, 255, 255) 1px 1px 1px, rgb(255, 255, 255) -1px -1px 1px, rgb(255, 255, 255) 1px -1px 1px, rgb(255, 255, 255) -1px 1px 1px; white-space: pre;">Canonical+Unexpected (89125)</text></g><g class="sankey-node" transform="translate(0.000,409.660)" style="opacity: 1;"><rect class="node-rect" width="20" height="8.387524748433407" style="stroke-width: 0.5; stroke: rgb(0, 0, 0); stroke-opacity: 1; fill: rgb(255, 255, 153); fill-opacity: 1;"/><text class="node-label" data-notex="1" x="0" y="0" text-anchor="start" transform="translate(23.25,7.693762374216703)" style="cursor: default; font-family: 'Open Sans', verdana, arial, sans-serif; font-size: 10px; fill: rgb(42, 63, 95); fill-opacity: 1; text-shadow: rgb(255, 255, 255) 1px 1px 1px, rgb(255, 255, 255) -1px -1px 1px, rgb(255, 255, 255) 1px -1px 1px, rgb(255, 255, 255) -1px 1px 1px; white-space: pre;">Unidentified (5278)</text></g><g class="sankey-node" transform="translate(0.000,433.048)" style="opacity: 1;"><rect class="node-rect" width="20" height="5.747949415514199" style="stroke-width: 0.5; stroke: rgb(0, 0, 0); stroke-opacity: 1; fill: rgb(202, 178, 214); fill-opacity: 1;"/><text class="node-label" data-notex="1" x="0" y="0" text-anchor="start" transform="translate(23.25,6.3739747077571)" style="cursor: default; font-family: 'Open Sans', verdana, arial, sans-serif; font-size: 10px; fill: rgb(42, 63, 95); fill-opacity: 1; text-shadow: rgb(255, 255, 255) 1px 1px 1px, rgb(255, 255, 255) -1px -1px 1px, rgb(255, 255, 255) 1px -1px 1px, rgb(255, 255, 255) -1px 1px 1px; white-space: pre;">Decoy (3617)</text></g><g class="sankey-node" transform="translate(620.000,0.000)" style="opacity: 1;"><rect class="node-rect" width="20" height="365.92205592052477" style="stroke-width: 0.5; stroke: rgb(0, 0, 0); stroke-opacity: 1; fill: rgb(166, 206, 227); fill-opacity: 1;"/><text class="node-label" data-notex="1" x="0" y="0" text-anchor="end" transform="translate(-3.25,186.46102796026238)" style="cursor: default; font-family: 'Open Sans', verdana, arial, sans-serif; font-size: 10px; fill: rgb(42, 63, 95); fill-opacity: 1; text-shadow: rgb(255, 255, 255) 1px 1px 1px, rgb(255, 255, 255) -1px -1px 1px, rgb(255, 255, 255) 1px -1px 1px, rgb(255, 255, 255) -1px 1px 1px; white-space: pre;">Canonical+Unmodified/Expected (230263)</text></g><g class="sankey-node" transform="translate(620.000,491.260)" style="opacity: 1;"><rect class="node-rect" width="20" height="128.74008240244206" style="stroke-width: 0.5; stroke: rgb(0, 0, 0); stroke-opacity: 1; fill: rgb(178, 223, 138); fill-opacity: 1;"/><text class="node-label" data-notex="1" x="0" y="0" text-anchor="end" transform="translate(-3.25,67.87004120122103)" style="cursor: default; font-family: 'Open Sans', verdana, arial, sans-serif; font-size: 10px; fill: rgb(42, 63, 95); fill-opacity: 1; text-shadow: rgb(255, 255, 255) 1px 1px 1px, rgb(255, 255, 255) -1px -1px 1px, rgb(255, 255, 255) 1px -1px 1px, rgb(255, 255, 255) -1px 1px 1px; white-space: pre;">Canonical+Unexpected (81012)</text></g><g class="sankey-node" transform="translate(620.000,380.922)" style="opacity: 1;"><rect class="node-rect" width="20" height="40.30080098906262" style="stroke-width: 0.5; stroke: rgb(0, 0, 0); stroke-opacity: 1; fill: rgb(255, 255, 153); fill-opacity: 1;"/><text class="node-label" data-notex="1" x="0" y="0" text-anchor="end" transform="translate(-3.25,23.65040049453131)" style="cursor: default; font-family: 'Open Sans', verdana, arial, sans-serif; font-size: 10px; fill: rgb(42, 63, 95); fill-opacity: 1; text-shadow: rgb(255, 255, 255) 1px 1px 1px, rgb(255, 255, 255) -1px -1px 1px, rgb(255, 255, 255) 1px -1px 1px, rgb(255, 255, 255) -1px 1px 1px; white-space: pre;">Unidentified (25360)</text></g><g class="sankey-node" transform="translate(620.000,454.168)" style="opacity: 1;"><rect class="node-rect" width="20" height="3.9394986455790786" style="stroke-width: 0.5; stroke: rgb(0, 0, 0); stroke-opacity: 1; fill: rgb(51, 160, 44); fill-opacity: 1;"/><text class="node-label" data-notex="1" x="0" y="0" text-anchor="end" transform="translate(-3.25,5.469749322789539)" style="cursor: default; font-family: 'Open Sans', verdana, arial, sans-serif; font-size: 10px; fill: rgb(42, 63, 95); fill-opacity: 1; text-shadow: rgb(255, 255, 255) 1px 1px 1px, rgb(255, 255, 255) -1px -1px 1px, rgb(255, 255, 255) 1px -1px 1px, rgb(255, 255, 255) -1px 1px 1px; white-space: pre;">NonCanonical+Unexpected (2479)</text></g><g class="sankey-node" transform="translate(620.000,473.107)" style="opacity: 1;"><rect class="node-rect" width="20" height="3.152870235106434" style="stroke-width: 0.5; stroke: rgb(0, 0, 0); stroke-opacity: 1; fill: rgb(202, 178, 214); fill-opacity: 1;"/><text class="node-label" data-notex="1" x="0" y="0" text-anchor="end" transform="translate(-3.25,5.076435117553217)" style="cursor: default; font-family: 'Open Sans', verdana, arial, sans-serif; font-size: 10px; fill: rgb(42, 63, 95); fill-opacity: 1; text-shadow: rgb(255, 255, 255) 1px 1px 1px, rgb(255, 255, 255) -1px -1px 1px, rgb(255, 255, 255) 1px -1px 1px, rgb(255, 255, 255) -1px 1px 1px; white-space: pre;">Decoy (1984)</text></g><g class="sankey-node" transform="translate(620.000,436.223)" style="opacity: 1;"><rect class="node-rect" width="20" height="2.944691807284471" style="stroke-width: 0.5; stroke: rgb(0, 0, 0); stroke-opacity: 1; fill: rgb(31, 120, 180); fill-opacity: 1;"/><text class="node-label" data-notex="1" x="0" y="0" text-anchor="end" transform="translate(-3.25,4.9723459036422355)" style="cursor: default; font-family: 'Open Sans', verdana, arial, sans-serif; font-size: 10px; fill: rgb(42, 63, 95); fill-opacity: 1; text-shadow: rgb(255, 255, 255) 1px 1px 1px, rgb(255, 255, 255) -1px -1px 1px, rgb(255, 255, 255) 1px -1px 1px, rgb(255, 255, 255) -1px 1px 1px; white-space: pre;">NonCanonical+Unmodified/Expected (1853)</text></g></g></g><defs id="topdefs-a27444"><g class="clips"/></defs><g class="layer-above"><g class="imagelayer"/><g class="shapelayer"/></g><g class="infolayer"><g class="g-gtitle"><text class="gtitle" x="40" y="50" text-anchor="start" dy="0em" style="opacity: 1; font-family: 'Open Sans', verdana, arial, sans-serif; font-size: 14px; fill: rgb(42, 63, 95); fill-opacity: 1; white-space: pre;">Closed search (left) vs Open PTM search (right)</text></g><g class="first-render"/></g></svg>