<svg class="main-svg" xmlns="http://www.w3.org/2000/svg" xmlns:xlink="http://www.w3.org/1999/xlink" width="800" height="800" style="" viewBox="0 0 800 800"><rect x="0" y="0" width="800" height="800" style="fill: rgb(255, 255, 255); fill-opacity: 1;"/><defs id="defs-ff0427"><g class="clips"/><g class="gradients"/><g class="patterns"/></defs><g class="bglayer"/><g class="layer-below"><g class="imagelayer"/><g class="shapelayer"/></g><g class="cartesianlayer"/><g class="polarlayer"/><g class="smithlayer"/><g class="ternarylayer"/><g class="geolayer"/><g class="funnelarealayer"/><g class="pielayer"/><g class="iciclelayer"/><g class="treemaplayer"/><g class="sunburstlayer"/><g class="glimages"/><g class="sankey" transform="translate(80,100)matrix(1 0 0 1 0 0)" style="box-sizing: content-box; position: absolute; left: 0px; shape-rendering: geometricprecision; pointer-events: none;"><g class="sankey-links" style="fill: none;"><path class="sankey-link" d="M20,7.134750868300472C320,7.134750868300472 320,-9.947598300641403e-13 620,-9.947598300641403e-13L620,357.33800221263766C320,357.33800221263766 320,364.4727530809391 20,364.4727530809391Z" style="stroke: rgb(68, 68, 68); stroke-opacity: 1; fill: rgb(0, 0, 0); fill-opacity: 0.2; stroke-width: 0; opacity: 1;"/><path class="sankey-link" d="M20,425.350129550392C320,425.350129550392 320,430.0746115606024 620,430.0746115606024L620,553.7599980357767C320,553.7599980357767 320,549.0355160255663 20,549.0355160255663Z" style="stroke: rgb(68, 68, 68); stroke-opacity: 1; fill: rgb(0, 0, 0); fill-opacity: 0.2; stroke-width: 0; opacity: 1;"/><path class="sankey-link" d="M20,364.47275308093907C320,364.47275308093907 320,377.4952988650829 620,377.4952988650829L620,398.8706877377638C320,398.8706877377638 320,385.84814195362 20,385.84814195362Z" style="stroke: rgb(68, 68, 68); stroke-opacity: 1; fill: rgb(0, 0, 0); fill-opacity: 0.2; stroke-width: 0; opacity: 1;"/><path class="sankey-link" d="M20,414.4719488823831C320,414.4719488823831 320,398.8706877377637 620,398.8706877377637L620,409.7488684057726C320,409.7488684057726 320,425.350129550392 20,425.350129550392Z" style="stroke: rgb(68, 68, 68); stroke-opacity: 1; fill: rgb(0, 0, 0); fill-opacity: 0.2; stroke-width: 0; opacity: 1;"/><path class="sankey-link" d="M20,568.0750835500394C320,568.0750835500394 320,409.7488684057726 620,409.7488684057726L620,413.1744720430501C320,413.1744720430501 320,571.5006871873168 20,571.5006871873168Z" style="stroke: rgb(68, 68, 68); stroke-opacity: 1; fill: rgb(0, 0, 0); fill-opacity: 0.2; stroke-width: 0; opacity: 1;"/><path class="sankey-link" d="M20,596.0092561069656C320,596.0092561069656 320,596.3966342473706 620,596.3966342473706L620,599.5530383341082C320,599.5530383341082 320,599.1656601937033 20,599.1656601937033Z" style="stroke: rgb(68, 68, 68); stroke-opacity: 1; fill: rgb(0, 0, 0); fill-opacity: 0.2; stroke-width: 0; opacity: 1;"/><path class="sankey-link" d="M20,593.1173287716354C320,593.1173287716354 320,573.9566513476585 620,573.9566513476585L620,576.8485786829889C320,576.8485786829889 320,596.0092561069657 20,596.0092561069657Z" style="stroke: rgb(68, 68, 68); stroke-opacity: 1; fill: rgb(0, 0, 0); fill-opacity: 0.2; stroke-width: 0; opacity: 1;"/><path class="sankey-link" d="M20,588.455926028079C320,588.455926028079 320,359.66791645122714 620,359.66791645122714L620,362.495298865083C320,362.495298865083 320,591.283308441935 20,591.283308441935Z" style="stroke: rgb(68, 68, 68); stroke-opacity: 1; fill: rgb(0, 0, 0); fill-opacity: 0.2; stroke-width: 0; opacity: 1;"/><path class="sankey-link" d="M20,599.1656601937034C320,599.1656601937034 320,617.2969846299607 620,617.2969846299607L620,620C320,620 320,601.8686755637427 20,601.8686755637427Z" style="stroke: rgb(68, 68, 68); stroke-opacity: 1; fill: rgb(0, 0, 0); fill-opacity: 0.2; stroke-width: 0; opacity: 1;"/><path class="sankey-link" d="M20,550.1926018129739C320,550.1926018129739 320,594.0242148165906 620,594.0242148165906L620,596.283287068196C320,596.283287068196 320,552.4516740645793 20,552.4516740645793Z" style="stroke: rgb(68, 68, 68); stroke-opacity: 1; fill: rgb(0, 0, 0); fill-opacity: 0.2; stroke-width: 0; opacity: 1;"/><path class="sankey-link" d="M20,389.70509457831196C320,389.70509457831196 320,591.8485786829889 620,591.8485786829889L620,594.0242148165906C320,594.0242148165906 320,391.8807307119137 20,391.8807307119137Z" style="stroke: rgb(68, 68, 68); stroke-opacity: 1; fill: rgb(0, 0, 0); fill-opacity: 0.2; stroke-width: 0; opacity: 1;"/><path class="sankey-link" d="M20,412.4553136529013C320,412.4553136529013 320,357.33800221263766 620,357.33800221263766L620,359.3546374421195C320,359.3546374421195 320,414.4719488823831 20,414.4719488823831Z" style="stroke: rgb(68, 68, 68); stroke-opacity: 1; fill: rgb(0, 0, 0); fill-opacity: 0.2; stroke-width: 0; opacity: 1;"/><path class="sankey-link" d="M20,387.7482814711723C320,387.7482814711723 320,570.7089398110302 620,570.7089398110302L620,572.6657529181698C320,572.6657529181698 320,389.7050945783119 20,389.7050945783119Z" style="stroke: rgb(68, 68, 68); stroke-opacity: 1; fill: rgb(0, 0, 0); fill-opacity: 0.2; stroke-width: 0; opacity: 1;"/><path class="sankey-link" d="M20,385.8481419536199C320,385.8481419536199 320,428.17447204305006 620,428.17447204305006L620,430.0746115606024C320,430.0746115606024 320,387.7482814711723 20,387.7482814711723Z" style="stroke: rgb(68, 68, 68); stroke-opacity: 1; fill: rgb(0, 0, 0); fill-opacity: 0.2; stroke-width: 0; opacity: 1;"/><path class="sankey-link" d="M20,591.2833084419349C320,591.2833084419349 320,553.8749194813287 620,553.8749194813287L620,555.7089398110292C320,555.7089398110292 320,593.1173287716354 20,593.1173287716354Z" style="stroke: rgb(68, 68, 68); stroke-opacity: 1; fill: rgb(0, 0, 0); fill-opacity: 0.2; stroke-width: 0; opacity: 1;"/><path class="sankey-link" d="M20,571.8627684541246C320,571.8627684541246 320,615.7038270560063 620,615.7038270560063L620,617.2969846299607C320,617.2969846299607 320,573.455926028079 20,573.455926028079Z" style="stroke: rgb(68, 68, 68); stroke-opacity: 1; fill: rgb(0, 0, 0); fill-opacity: 0.2; stroke-width: 0; opacity: 1;"/><path class="sankey-link" d="M20,549.0355160255663C320,549.0355160255663 320,572.6657529181698 620,572.6657529181698L620,573.8228387055774C320,573.8228387055774 320,550.1926018129739 20,550.1926018129739Z" style="stroke: rgb(68, 68, 68); stroke-opacity: 1; fill: rgb(0, 0, 0); fill-opacity: 0.2; stroke-width: 0; opacity: 1;"/><path class="sankey-link" d="M20,391.8807307119137C320,391.8807307119137 320,614.5530383341084 620,614.5530383341084L620,615.3936965796536C320,615.3936965796536 320,392.7213889574588 20,392.7213889574588Z" style="stroke: rgb(0, 0, 0); stroke-opacity: 0.2; fill: rgb(0, 0, 0); fill-opacity: 0.2; stroke-width: 1; opacity: 1;"/><path class="sankey-link" d="M20,567.7618045409317C320,567.7618045409317 320,359.3546374421195 620,359.3546374421195L620,359.66791645122714C320,359.66791645122714 320,568.0750835500394 20,568.0750835500394Z" style="stroke: rgb(0, 0, 0); stroke-opacity: 0.2; fill: rgb(0, 0, 0); fill-opacity: 0.2; stroke-width: 1; opacity: 1;"/><path class="sankey-link" d="M20,552.4516740645792C320,552.4516740645792 320,615.3936965796535 620,615.3936965796535L620,615.7038270560062C320,615.7038270560062 320,552.7618045409318 20,552.7618045409318Z" style="stroke: rgb(0, 0, 0); stroke-opacity: 0.2; fill: rgb(0, 0, 0); fill-opacity: 0.2; stroke-width: 1; opacity: 1;"/><path class="sankey-link" d="M20,571.6156086328689C320,571.6156086328689 320,573.8228387055774 620,573.8228387055774L620,573.9566513476586C320,573.9566513476586 320,571.7494212749501 20,571.7494212749501Z" style="stroke: rgb(0, 0, 0); stroke-opacity: 0.2; fill: rgb(0, 0, 0); fill-opacity: 0.2; stroke-width: 1; opacity: 1;"/><path class="sankey-link" d="M20,571.5006871873169C320,571.5006871873169 320,553.7599980357767 620,553.7599980357767L620,553.8749194813287C320,553.8749194813287 320,571.6156086328689 20,571.6156086328689Z" style="stroke: rgb(0, 0, 0); stroke-opacity: 0.2; fill: rgb(0, 0, 0); fill-opacity: 0.2; stroke-width: 1; opacity: 1;"/><path class="sankey-link" d="M20,571.74942127495C320,571.74942127495 320,596.2832870681959 620,596.2832870681959L620,596.3966342473705C320,596.3966342473705 320,571.8627684541245 20,571.8627684541245Z" style="stroke: rgb(0, 0, 0); stroke-opacity: 0.2; fill: rgb(0, 0, 0); fill-opacity: 0.2; stroke-width: 1; opacity: 1;"/></g><g class="sankey-node-set" style="cursor: move;"><g class="sankey-node" transform="translate(0.000,7.135)" style="opacity: 1;"><rect class="node-rect" width="20" height="385.58663808915827" style="stroke-width: 0.5; stroke: rgb(0, 0, 0); stroke-opacity: 1; fill: rgb(166, 206, 227); fill-opacity: 1;"/><text class="node-label" data-notex="1" x="0" y="0" text-anchor="start" transform="translate(23.25,196.29331904457914)" style="cursor: default; font-family: 'Open Sans', verdana, arial, sans-serif; font-size: 10px; fill: rgb(42, 63, 95); fill-opacity: 1; text-shadow: rgb(255, 255, 255) 1px 1px 1px, rgb(255, 255, 255) -1px -1px 1px, rgb(255, 255, 255) 1px -1px 1px, rgb(255, 255, 255) -1px 1px 1px; white-space: pre;">Canonical+Unmodified/Expected (244931)</text></g><g class="sankey-node" transform="translate(0.000,412.455)" style="opacity: 1;"><rect class="node-rect" width="20" height="140.30649088803045" style="stroke-width: 0.5; stroke: rgb(0, 0, 0); stroke-opacity: 1; fill: rgb(178, 223, 138); fill-opacity: 1;"/><text class="node-label" data-notex="1" x="0" y="0" text-anchor="start" transform="translate(23.25,73.65324544401523)" style="cursor: default; font-family: 'Open Sans', verdana, arial, sans-serif; font-size: 10px; fill: rgb(42, 63, 95); fill-opacity: 1; text-shadow: rgb(255, 255, 255) 1px 1px 1px, rgb(255, 255, 255) -1px -1px 1px, rgb(255, 255, 255) 1px -1px 1px, rgb(255, 255, 255) -1px 1px 1px; white-space: pre;">Canonical+Unexpected (89125)</text></g><g class="sankey-node" transform="translate(0.000,588.456)" style="opacity: 1;"><rect class="node-rect" width="20" height="13.412749535663579" style="stroke-width: 0.5; stroke: rgb(0, 0, 0); stroke-opacity: 1; fill: rgb(255, 255, 153); fill-opacity: 1;"/><text class="node-label" data-notex="1" x="0" y="0" text-anchor="start" transform="translate(23.25,10.20637476783179)" style="cursor: default; font-family: 'Open Sans', verdana, arial, sans-serif; font-size: 10px; fill: rgb(42, 63, 95); fill-opacity: 1; text-shadow: rgb(255, 255, 255) 1px 1px 1px, rgb(255, 255, 255) -1px -1px 1px, rgb(255, 255, 255) 1px -1px 1px, rgb(255, 255, 255) -1px 1px 1px; white-space: pre;">Unidentified (8520)</text></g><g class="sankey-node" transform="translate(0.000,567.762)" style="opacity: 1;"><rect class="node-rect" width="20" height="5.694121487147299" style="stroke-width: 0.5; stroke: rgb(0, 0, 0); stroke-opacity: 1; fill: rgb(202, 178, 214); fill-opacity: 1;"/><text class="node-label" data-notex="1" x="0" y="0" text-anchor="start" transform="translate(23.25,6.34706074357365)" style="cursor: default; font-family: 'Open Sans', verdana, arial, sans-serif; font-size: 10px; fill: rgb(42, 63, 95); fill-opacity: 1; text-shadow: rgb(255, 255, 255) 1px 1px 1px, rgb(255, 255, 255) -1px -1px 1px, rgb(255, 255, 255) 1px -1px 1px, rgb(255, 255, 255) -1px 1px 1px; white-space: pre;">Decoy (3617)</text></g><g class="sankey-node" transform="translate(620.000,-0.000)" style="opacity: 1;"><rect class="node-rect" width="20" height="362.4952988650839" style="stroke-width: 0.5; stroke: rgb(0, 0, 0); stroke-opacity: 1; fill: rgb(166, 206, 227); fill-opacity: 1;"/><text class="node-label" data-notex="1" x="0" y="0" text-anchor="end" transform="translate(-3.25,184.74764943254195)" style="cursor: default; font-family: 'Open Sans', verdana, arial, sans-serif; font-size: 10px; fill: rgb(42, 63, 95); fill-opacity: 1; text-shadow: rgb(255, 255, 255) 1px 1px 1px, rgb(255, 255, 255) -1px -1px 1px, rgb(255, 255, 255) 1px -1px 1px, rgb(255, 255, 255) -1px 1px 1px; white-space: pre;">Canonical+Unmodified/Expected (230263)</text></g><g class="sankey-node" transform="translate(620.000,428.174)" style="opacity: 1;"><rect class="node-rect" width="20" height="127.53446776798012" style="stroke-width: 0.5; stroke: rgb(0, 0, 0); stroke-opacity: 1; fill: rgb(178, 223, 138); fill-opacity: 1;"/><text class="node-label" data-notex="1" x="0" y="0" text-anchor="end" transform="translate(-3.25,67.26723388399006)" style="cursor: default; font-family: 'Open Sans', verdana, arial, sans-serif; font-size: 10px; fill: rgb(42, 63, 95); fill-opacity: 1; text-shadow: rgb(255, 255, 255) 1px 1px 1px, rgb(255, 255, 255) -1px -1px 1px, rgb(255, 255, 255) 1px -1px 1px, rgb(255, 255, 255) -1px 1px 1px; white-space: pre;">Canonical+Unexpected (81012)</text></g><g class="sankey-node" transform="translate(620.000,377.495)" style="opacity: 1;"><rect class="node-rect" width="20" height="35.679173177967186" style="stroke-width: 0.5; stroke: rgb(0, 0, 0); stroke-opacity: 1; fill: rgb(255, 255, 153); fill-opacity: 1;"/><text class="node-label" data-notex="1" x="0" y="0" text-anchor="end" transform="translate(-3.25,21.339586588983593)" style="cursor: default; font-family: 'Open Sans', verdana, arial, sans-serif; font-size: 10px; fill: rgb(42, 63, 95); fill-opacity: 1; text-shadow: rgb(255, 255, 255) 1px 1px 1px, rgb(255, 255, 255) -1px -1px 1px, rgb(255, 255, 255) 1px -1px 1px, rgb(255, 255, 255) -1px 1px 1px; white-space: pre;">Unidentified (22664)</text></g><g class="sankey-node" transform="translate(620.000,591.849)" style="opacity: 1;"><rect class="node-rect" width="20" height="7.704459651119464" style="stroke-width: 0.5; stroke: rgb(0, 0, 0); stroke-opacity: 1; fill: rgb(51, 160, 44); fill-opacity: 1;"/><text class="node-label" data-notex="1" x="0" y="0" text-anchor="end" transform="translate(-3.25,7.352229825559732)" style="cursor: default; font-family: 'Open Sans', verdana, arial, sans-serif; font-size: 10px; fill: rgb(42, 63, 95); fill-opacity: 1; text-shadow: rgb(255, 255, 255) 1px 1px 1px, rgb(255, 255, 255) -1px -1px 1px, rgb(255, 255, 255) 1px -1px 1px, rgb(255, 255, 255) -1px 1px 1px; white-space: pre;">NonCanonical+Unexpected (4894)</text></g><g class="sankey-node" transform="translate(620.000,570.709)" style="opacity: 1;"><rect class="node-rect" width="20" height="6.139638871958709" style="stroke-width: 0.5; stroke: rgb(0, 0, 0); stroke-opacity: 1; fill: rgb(31, 120, 180); fill-opacity: 1;"/><text class="node-label" data-notex="1" x="0" y="0" text-anchor="end" transform="translate(-3.25,6.569819435979355)" style="cursor: default; font-family: 'Open Sans', verdana, arial, sans-serif; font-size: 10px; fill: rgb(42, 63, 95); fill-opacity: 1; text-shadow: rgb(255, 255, 255) 1px 1px 1px, rgb(255, 255, 255) -1px -1px 1px, rgb(255, 255, 255) 1px -1px 1px, rgb(255, 255, 255) -1px 1px 1px; white-space: pre;">NonCanonical+Unmodified/Expected (3900)</text></g><g class="sankey-node" transform="translate(620.000,614.553)" style="opacity: 1;"><rect class="node-rect" width="20" height="5.446961665891649" style="stroke-width: 0.5; stroke: rgb(0, 0, 0); stroke-opacity: 1; fill: rgb(202, 178, 214); fill-opacity: 1;"/><text class="node-label" data-notex="1" x="0" y="0" text-anchor="end" transform="translate(-3.25,6.223480832945825)" style="cursor: default; font-family: 'Open Sans', verdana, arial, sans-serif; font-size: 10px; fill: rgb(42, 63, 95); fill-opacity: 1; text-shadow: rgb(255, 255, 255) 1px 1px 1px, rgb(255, 255, 255) -1px -1px 1px, rgb(255, 255, 255) 1px -1px 1px, rgb(255, 255, 255) -1px 1px 1px; white-space: pre;">Decoy (3460)</text></g></g></g><defs id="topdefs-ff0427"><g class="clips"/></defs><g class="layer-above"><g class="imagelayer"/><g class="shapelayer"/></g><g class="infolayer"><g class="g-gtitle"><text class="gtitle" x="40" y="50" text-anchor="start" dy="0em" style="opacity: 1; font-family: 'Open Sans', verdana, arial, sans-serif; font-size: 14px; fill: rgb(42, 63, 95); fill-opacity: 1; white-space: pre;">Closed search (left) vs Open PTM search (right)</text></g><g class="first-render"/></g></svg>